<svg width="88" height="26" viewBox="0 0 88 26" fill="none" xmlns="http://www.w3.org/2000/svg">
<g clip-path="url(#clip0_1009_63242)">
<path d="M68.008 7.36719H63.2617C62.9825 7.36719 62.7033 7.64638 62.5637 7.92558L60.6094 20.2101C60.6094 20.4893 60.749 20.6289 61.0282 20.6289H63.5409C63.8201 20.6289 63.9597 20.4893 63.9597 20.2101L64.5181 16.7202C64.5181 16.441 64.7973 16.1618 65.2161 16.1618H66.7517C69.9624 16.1618 71.7772 14.6262 72.196 11.5551C72.4751 10.2987 72.1959 9.18195 71.6376 8.48397C70.8 7.78598 69.5436 7.36719 68.008 7.36719ZM68.5664 11.9739C68.2872 13.6491 67.0308 13.6491 65.7745 13.6491H64.9369L65.4953 10.4383C65.4953 10.2987 65.6349 10.1591 65.9141 10.1591H66.1933C67.0309 10.1591 67.8684 10.1591 68.2872 10.7175C68.5664 10.8571 68.5664 11.2759 68.5664 11.9739Z" fill="#139AD6"/>
<path d="M33.8049 7.36719H29.0586C28.7794 7.36719 28.5002 7.64638 28.3606 7.92558L26.4062 20.2101C26.4062 20.4893 26.5458 20.6289 26.825 20.6289H29.0586C29.3378 20.6289 29.617 20.3497 29.7566 20.0705L30.315 16.7202C30.315 16.441 30.5942 16.1618 31.013 16.1618H32.5485C35.7593 16.1618 37.574 14.6262 37.9928 11.5551C38.272 10.2987 37.9928 9.18195 37.4344 8.48397C36.5969 7.78598 35.4801 7.36719 33.8049 7.36719ZM34.3633 11.9739C34.0841 13.6491 32.8277 13.6491 31.5714 13.6491H30.8734L31.4318 10.4383C31.4318 10.2987 31.5714 10.1591 31.8505 10.1591H32.1297C32.9673 10.1591 33.8049 10.1591 34.2237 10.7175C34.3633 10.8571 34.5029 11.2759 34.3633 11.9739Z" fill="#263B80"/>
<path d="M48.1919 11.8339H45.9584C45.8188 11.8339 45.5396 11.9735 45.5396 12.1131L45.4 12.8111L45.2604 12.5319C44.702 11.8339 43.7248 11.5547 42.608 11.5547C40.0953 11.5547 37.8617 13.5091 37.4429 16.1614C37.1637 17.5574 37.5825 18.8137 38.2805 19.6513C38.9785 20.4889 39.9557 20.7681 41.212 20.7681C43.306 20.7681 44.4228 19.5117 44.4228 19.5117L44.2832 20.2097C44.2832 20.4889 44.4228 20.6285 44.702 20.6285H46.7959C47.0751 20.6285 47.3543 20.3493 47.4939 20.0701L48.7503 12.2527C48.6107 12.1131 48.3315 11.8339 48.1919 11.8339ZM44.9812 16.301C44.702 17.5574 43.7248 18.5346 42.3288 18.5346C41.6308 18.5346 41.0725 18.2554 40.7933 17.9762C40.5141 17.5574 40.3745 16.999 40.3745 16.301C40.5141 15.0446 41.6308 14.0674 42.8872 14.0674C43.5852 14.0674 44.004 14.3466 44.4228 14.6258C44.8416 15.0446 44.9812 15.7426 44.9812 16.301Z" fill="#263B80"/>
<path d="M82.2525 11.8339H80.0189C79.8793 11.8339 79.6001 11.9735 79.6001 12.1131L79.4605 12.8111L79.3209 12.5319C78.7625 11.8339 77.7853 11.5547 76.6686 11.5547C74.1558 11.5547 71.9223 13.5091 71.5035 16.1614C71.2243 17.5574 71.6431 18.8137 72.3411 19.6513C73.039 20.4889 74.0162 20.7681 75.2726 20.7681C77.3666 20.7681 78.4833 19.5117 78.4833 19.5117L78.3437 20.2097C78.3437 20.4889 78.4833 20.6285 78.7625 20.6285H80.8565C81.1357 20.6285 81.4149 20.3493 81.5545 20.0701L82.8108 12.2527C82.6713 12.1131 82.5317 11.8339 82.2525 11.8339ZM79.0417 16.301C78.7625 17.5574 77.7853 18.5346 76.3894 18.5346C75.6914 18.5346 75.133 18.2554 74.8538 17.9762C74.5746 17.5574 74.435 16.999 74.435 16.301C74.5746 15.0446 75.6914 14.0674 76.9478 14.0674C77.6457 14.0674 78.0645 14.3466 78.4833 14.6258C79.0417 15.0446 79.1813 15.7426 79.0417 16.301Z" fill="#139AD6"/>
<path d="M60.3388 11.8281H57.9657C57.6865 11.8281 57.5469 11.9677 57.4073 12.1073L54.3362 16.8536L52.9402 12.3865C52.8006 12.1073 52.661 11.9677 52.2422 11.9677H50.0086C49.7294 11.9677 49.5898 12.2469 49.5898 12.5261L52.1026 19.9248L49.7294 23.2751C49.5898 23.5543 49.7294 23.9731 50.0086 23.9731H52.2422C52.5214 23.9731 52.661 23.8335 52.8006 23.6939L60.4784 12.6657C60.8972 12.2469 60.618 11.8281 60.3388 11.8281Z" fill="#263B80"/>
<path d="M84.8977 7.77927L82.9434 20.343C82.9434 20.6222 83.083 20.7618 83.3622 20.7618H85.3165C85.5957 20.7618 85.8749 20.4826 86.0145 20.2034L87.9689 7.91887C87.9689 7.63967 87.8293 7.50008 87.5501 7.50008H85.3165C85.1769 7.36048 85.0373 7.50008 84.8977 7.77927Z" fill="#139AD6"/>
<path d="M16.081 3.17517C15.1039 2.05839 13.2891 1.5 10.7763 1.5H3.79647C3.37768 1.5 2.95889 1.91879 2.81929 2.33758L0.0273438 20.6248C0.0273438 21.0436 0.306538 21.3228 0.585733 21.3228H4.91325L6.03003 14.4825V14.7617C6.16963 14.343 6.58842 13.9242 7.00721 13.9242H9.10117C13.1495 13.9242 16.2206 12.249 17.1978 7.64228C17.1978 7.50268 17.1978 7.36309 17.1978 7.22349C17.0582 7.22349 17.0582 7.22349 17.1978 7.22349C17.3374 5.40872 17.0582 4.29194 16.081 3.17517Z" fill="#263B80"/>
<path d="M17.0501 7.22656C17.0501 7.36616 17.0501 7.50576 17.0501 7.64536C16.0729 12.3917 13.0018 13.9272 8.95344 13.9272H6.85948C6.44069 13.9272 6.0219 14.346 5.8823 14.7648L4.48633 23.2803C4.48633 23.5594 4.62593 23.8386 5.04472 23.8386H8.67425C9.09304 23.8386 9.51183 23.5595 9.51183 23.1407V23.0011L10.2098 18.6735V18.3943C10.2098 17.9756 10.6286 17.6964 11.0474 17.6964H11.6058C15.0957 17.6964 17.8877 16.3004 18.5857 12.1125C18.8649 10.4373 18.7253 8.90173 17.8877 7.92455C17.7481 7.64535 17.4689 7.36616 17.0501 7.22656Z" fill="#139AD6"/>
<path d="M16.0823 6.8016C15.9427 6.8016 15.8031 6.66201 15.6635 6.66201C15.5239 6.66201 15.3843 6.66201 15.2447 6.52241C14.6863 6.38281 14.1279 6.38281 13.4299 6.38281H7.98561C7.84601 6.38281 7.70642 6.38281 7.56682 6.52241C7.28763 6.66201 7.14803 6.9412 7.14803 7.22039L6.03125 14.4795V14.7587C6.17085 14.3399 6.58964 13.9211 7.00843 13.9211H9.10239C13.1507 13.9211 16.2219 12.2459 17.199 7.63919C17.199 7.49959 17.199 7.35999 17.3386 7.22039C17.0594 7.0808 16.9198 6.9412 16.6406 6.9412C16.2219 6.8016 16.2219 6.8016 16.0823 6.8016Z" fill="#232C65"/>
</g>
<defs>
<clipPath id="clip0_1009_63242">
<rect width="87.9463" height="26" fill="white" transform="translate(0.0273438)"/>
</clipPath>
</defs>
</svg>
