<svg width="128" height="112" viewBox="0 0 128 112" fill="none" xmlns="http://www.w3.org/2000/svg">
<path d="M41.7312 3.39846C42.6024 3.45158 43.4738 3.50171 44.3452 3.55174C44.6103 3.56697 44.6103 3.56697 44.8808 3.5825C46.5202 3.67571 48.16 3.75578 49.8006 3.8254C49.9387 3.8313 50.0767 3.83719 50.219 3.84326C51.9858 3.91768 53.7527 3.97692 55.5204 4.02647C59.6169 4.14235 63.704 4.29698 67.7942 4.55363C67.8939 4.55985 67.9935 4.56607 68.0962 4.57248C70.2781 4.70894 72.4577 4.86329 74.6365 5.04301C75.9036 5.14584 77.1708 5.21706 78.4407 5.27497C80.1204 5.35209 81.7983 5.4363 83.4741 5.57683C84.6937 5.67895 85.9129 5.75851 87.1349 5.82457C87.2844 5.83267 87.434 5.84077 87.5881 5.84912C87.7421 5.85746 87.8962 5.86581 88.0549 5.8744C92.7704 6.13021 97.4734 6.49995 102.178 6.91345C102.338 6.92752 102.498 6.94158 102.663 6.95608C103.66 7.04385 104.656 7.13438 105.653 7.22686C105.773 7.23782 105.893 7.24877 106.017 7.26006C107.336 7.38097 108.65 7.52953 109.961 7.71369C110.084 7.72993 110.207 7.74617 110.333 7.7629C111.387 7.91795 112.127 8.28935 112.944 8.97829C113.082 9.08476 113.219 9.19123 113.36 9.30093C115.355 10.9531 116.524 13.6414 116.779 16.2052C116.943 18.8292 116.951 21.4702 116.969 24.0984C116.971 24.4206 116.975 24.7427 116.979 25.0649C116.986 25.5234 116.988 25.9817 116.989 26.4402C116.992 26.5761 116.994 26.7121 116.997 26.8522C116.993 28.1473 116.606 29.2636 115.756 30.2536C115.654 30.3743 115.552 30.495 115.446 30.6194C115.351 30.7299 115.255 30.8403 115.157 30.9541C115.015 31.1291 114.874 31.3042 114.733 31.4796C114.419 31.8391 114.419 31.8391 114.124 31.9866C114.037 42.8664 113.961 53.7462 113.959 64.6265C113.958 65.4075 113.958 66.1884 113.957 66.9694C113.954 71.2781 113.958 75.5851 114.083 79.8923C114.112 80.9249 114.134 81.9571 114.14 82.9901C114.141 83.0994 114.142 83.2086 114.143 83.3212C114.145 84.1761 114.029 84.8933 113.682 85.6725C113.637 85.7784 113.592 85.8843 113.545 85.9934C113.064 86.9786 112.312 87.7349 111.561 88.5185C111.307 88.7855 111.058 89.0563 110.809 89.328C110.633 89.5199 110.457 89.7117 110.28 89.9036C110.2 89.9911 110.121 90.0785 110.039 90.1687C109.577 90.6664 109.099 91.129 108.59 91.5784C107.558 92.4961 106.596 93.4849 105.625 94.4665C103.504 96.6103 103.504 96.6103 102.601 97.3762C102.013 97.8938 101.473 98.4624 100.924 99.0202C100.172 99.7845 99.4162 100.528 98.6024 101.227C98.253 101.532 97.929 101.859 97.6054 102.191C97.1952 102.613 96.7766 103.01 96.3299 103.392C95.6256 104.002 94.9814 104.667 94.3303 105.333C93.0845 106.604 91.8229 107.784 90.3785 108.828C90.2439 108.934 90.1092 109.04 89.9706 109.15C87.821 110.815 85.512 111.518 82.8139 111.508C82.7002 111.508 82.5864 111.508 82.4692 111.507C81.1138 111.493 79.7707 111.367 78.4226 111.234C78.1477 111.208 77.8727 111.182 77.5977 111.156C75.4117 110.944 73.2317 110.687 71.0542 110.401C69.8059 110.239 68.5686 110.122 67.3111 110.063C66.1678 110.007 65.0389 109.869 63.9042 109.722C63.584 109.682 63.2638 109.642 62.9436 109.602C62.7354 109.576 62.5273 109.55 62.3192 109.524C61.3553 109.403 60.3903 109.296 59.4244 109.192C58.8756 109.131 58.3282 109.061 57.7805 108.99C56.3369 108.807 54.8895 108.662 53.4417 108.516C52.9628 108.468 52.484 108.419 52.0053 108.371C50.619 108.23 49.2326 108.09 47.8458 107.955C47.6453 107.935 47.4448 107.915 47.2444 107.896C46.8937 107.861 46.543 107.828 46.1922 107.794C45.3889 107.716 44.5918 107.62 43.7933 107.501C42.8007 107.356 41.8081 107.26 40.8086 107.176C36.6005 106.82 32.4113 106.308 28.2211 105.786C28.0407 105.764 27.8603 105.741 27.6745 105.718C27.1532 105.653 26.632 105.588 26.1108 105.522C25.9569 105.503 25.8029 105.484 25.6444 105.464C24.7034 105.345 23.7663 105.209 22.8295 105.06C22.082 104.948 21.3308 104.872 20.5794 104.791C12.5353 103.873 12.5353 103.873 10.2321 101.053C8.92831 99.184 8.60954 97.1639 8.49659 94.9327C8.49076 94.8277 8.48494 94.7227 8.47894 94.6145C8.35381 92.3533 8.3338 90.0934 8.34042 87.8293C8.34173 87.2644 8.34126 86.6996 8.34104 86.1348C8.34089 85.1626 8.34179 84.1904 8.34347 83.2182C8.3459 81.8127 8.34664 80.4072 8.34701 79.0017C8.34765 76.7197 8.3496 74.4378 8.35241 72.1559C8.35513 69.943 8.35721 67.73 8.35846 65.517C8.35857 65.3115 8.35857 65.3115 8.35869 65.1017C8.35907 64.414 8.35945 63.7262 8.35981 63.0385C8.36286 57.3583 8.36804 51.6782 8.37466 45.998C8.23807 45.9845 8.23807 45.9845 8.09873 45.9706C7.91949 45.952 7.91949 45.952 7.73663 45.933C7.55898 45.9149 7.55898 45.9149 7.37774 45.8964C6.23244 45.7374 5.13998 44.9319 4.39246 44.0806C3.46694 42.7553 3.02541 41.5421 3.01335 39.9283C3.0114 39.8145 3.00944 39.7006 3.00743 39.5833C3.00142 39.2104 2.99744 38.8375 2.99362 38.4645C2.99011 38.2026 2.98651 37.9407 2.98285 37.6788C2.9755 37.1308 2.96919 36.5829 2.96359 36.0349C2.95636 35.3371 2.94646 34.6393 2.93575 33.9414C2.92778 33.4006 2.92132 32.8598 2.91529 32.319C2.91224 32.0619 2.90871 31.8048 2.90468 31.5478C2.86492 28.9121 3.07022 26.6544 4.86258 24.5752C6.22663 23.1725 7.76993 22.0904 9.38656 21.0038C10.2976 20.3903 11.1715 19.753 12.0348 19.0738C12.894 18.4041 13.7968 17.7918 14.6894 17.168C15.2125 16.8023 15.7344 16.4348 16.2561 16.067C16.3606 15.9934 16.4651 15.9198 16.5727 15.8441C17.0868 15.4813 17.5986 15.1161 18.106 14.7442C19.6337 13.6258 21.1929 12.5602 22.7629 11.5027C24.0206 10.6553 25.2669 9.7974 26.4905 8.90124C27.4959 8.16617 28.5234 7.4652 29.5543 6.76654C29.9478 6.49944 30.3377 6.22888 30.7227 5.94959C34.3344 3.35003 37.4102 3.1336 41.7312 3.39846Z" fill="#FFA500"/>
<path d="M12.6521 46.1406C15.3239 46.2494 17.9938 46.3883 20.6637 46.5347C20.8844 46.5468 21.1051 46.5589 21.3259 46.5709C22.2516 46.6216 23.1774 46.6725 24.1031 46.7235C25.2778 46.7884 26.4525 46.8529 27.6273 46.9164C34.075 47.2651 40.5149 47.6783 46.9536 48.1671C47.5828 48.2148 48.212 48.2622 48.8412 48.3095C49.7907 48.381 50.7401 48.4527 51.6895 48.5245C53.5497 48.6647 55.4109 48.7896 57.2721 48.9148C58.7471 49.0142 60.2218 49.1164 61.6962 49.2235C61.9352 49.2408 61.9352 49.2408 62.179 49.2585C62.422 49.2761 62.422 49.2761 62.67 49.2941C63.0047 49.3184 63.3393 49.3427 63.674 49.3669C63.9249 49.3851 63.9249 49.3851 64.1808 49.4037C66.4461 49.5674 68.7117 49.7212 70.9782 49.8664C71.102 49.8744 71.2259 49.8823 71.3535 49.8905C72.5835 49.9695 73.8135 50.048 75.0437 50.1248C75.5079 50.1539 75.9721 50.1835 76.4363 50.2131C76.6465 50.2264 76.8567 50.2395 77.0669 50.2524C78.7601 50.3561 80.4493 50.4998 82.1392 50.6458C82.3811 50.6667 82.6229 50.6875 82.8648 50.7083C83.4521 50.7588 84.0394 50.8095 84.6266 50.8603C84.63 57.8774 84.6326 64.8945 84.6342 71.9116C84.6344 72.7395 84.6346 73.5673 84.6348 74.3951C84.6348 74.6423 84.6348 74.6423 84.6349 74.8945C84.6355 77.5656 84.6367 80.2366 84.638 82.9076C84.6394 85.6469 84.6402 88.3862 84.6405 91.1255C84.6407 92.8167 84.6414 94.508 84.6426 96.1992C84.6433 97.3579 84.6436 98.5165 84.6434 99.6752C84.6433 100.344 84.6434 101.014 84.6442 101.683C84.6449 102.295 84.645 102.907 84.6445 103.519C84.6444 103.741 84.6446 103.963 84.6451 104.185C84.6457 104.486 84.6453 104.786 84.6448 105.087C84.6449 105.254 84.6449 105.422 84.645 105.594C84.6291 105.964 84.6093 106.265 84.4792 106.611C82.4116 107.738 78.7325 106.81 76.4733 106.504C73.5795 106.115 70.6752 105.836 67.7699 105.549C67.2486 105.497 66.7273 105.446 66.2061 105.394C66.0498 105.378 66.0498 105.378 65.8903 105.362C64.3384 105.208 62.789 105.036 61.2399 104.855C58.0808 104.487 54.9158 104.178 51.7509 103.865C50.4975 103.741 49.2441 103.616 47.9908 103.492C47.6795 103.461 47.3683 103.43 47.057 103.399C44.3491 103.13 41.6419 102.855 38.9349 102.578C37.5361 102.434 36.1372 102.292 34.7373 102.159C32.7995 101.974 30.8696 101.741 28.939 101.494C27.4479 101.303 25.9565 101.121 24.4621 100.958C24.3149 100.942 24.1676 100.926 24.0158 100.909C23.3032 100.832 22.5905 100.755 21.8776 100.68C20.6228 100.546 19.3733 100.397 18.1276 100.194C17.9689 100.169 17.9689 100.169 17.8069 100.143C16.1334 99.8574 14.6567 99.2953 13.6073 97.9069C12.7957 96.6777 12.6337 95.4088 12.6221 93.9566C12.6207 93.845 12.6192 93.7335 12.6178 93.6185C12.6132 93.2463 12.6096 92.874 12.6061 92.5017C12.6031 92.2332 12.6 91.9646 12.5969 91.696C12.5887 90.9628 12.5815 90.2296 12.5747 89.4963C12.5703 89.0305 12.5656 88.5647 12.5609 88.0989C12.4897 80.9543 12.4819 73.8098 12.4856 66.6648C12.4863 65.2964 12.4858 63.928 12.4851 62.5596C12.4844 61.2076 12.4843 59.8557 12.4847 58.5037C12.485 57.7102 12.485 56.9167 12.4845 56.1231C12.4827 52.7924 12.4989 49.4685 12.6521 46.1406Z" fill="#FFEECF"/>
<path d="M38.8664 8.21904C38.9638 8.21929 39.0613 8.21954 39.1617 8.2198C41.2038 8.22521 43.2436 8.27659 45.2844 8.34579C45.5645 8.35498 45.5645 8.35498 45.8503 8.36437C49.7934 8.49384 53.7356 8.64867 57.6776 8.8059C58.1581 8.82497 58.6385 8.84376 59.119 8.86248C59.8874 8.89249 60.6557 8.9234 61.424 8.95494C61.7074 8.96645 61.9907 8.9777 62.2741 8.98864C63.8979 9.05163 65.5121 9.15106 67.1295 9.31084C68.3885 9.43459 69.6476 9.48989 70.9113 9.53808C73.6823 9.64501 76.4456 9.81666 79.211 10.0182C79.3395 10.0275 79.468 10.0369 79.6003 10.0465C79.7271 10.0558 79.854 10.065 79.9846 10.0746C81.0882 10.1544 82.1924 10.2202 83.2971 10.283C85.112 10.3865 86.9211 10.5256 88.7316 10.6878C90.671 10.8607 92.6119 10.996 94.5549 11.1204C94.6998 11.1297 94.8447 11.139 94.994 11.1486C96.1954 11.2255 97.3968 11.3013 98.5983 11.3756C102.356 11.6084 102.356 11.6084 103.922 11.8486C105.041 11.9997 106.177 12.0381 107.304 12.1016C108.233 12.1582 109.108 12.2171 109.995 12.5123C110.216 12.8258 110.216 12.8258 110.29 13.1023C109.023 14.3841 107.702 15.6069 106.295 16.7342C105.773 17.1598 105.266 17.6006 104.759 18.0432C103.864 18.8234 102.955 19.5831 102.031 20.3293C101.135 21.0546 100.249 21.7895 99.376 22.5416C98.5024 23.2936 97.6165 24.028 96.7212 24.7539C96.5421 24.9008 96.3631 25.0477 96.1842 25.1947C90.0031 30.2624 90.0031 30.2624 86.2374 30.2404C86.0495 30.2397 85.8616 30.239 85.6681 30.2383C83.6611 30.2224 81.6606 30.1154 79.6577 29.9907C79.3356 29.9708 79.0135 29.9514 78.6914 29.9321C74.7924 29.6994 70.8957 29.4321 66.9992 29.1607C63.2838 28.9021 59.5675 28.6605 55.85 28.4325C55.7442 28.426 55.6383 28.4195 55.5293 28.4128C53.4031 28.2824 51.2769 28.1529 49.1506 28.0248C48.0585 27.959 46.9664 27.8928 45.8744 27.8264C45.6836 27.8148 45.4928 27.8032 45.2962 27.7913C42.8672 27.6433 40.4404 27.4785 38.0143 27.2887C35.8045 27.1165 33.5939 26.9988 31.38 26.8945C27.1631 26.6955 22.954 26.4347 18.7463 26.0922C18.3885 26.0631 18.0306 26.0343 17.6728 26.0056C17.1111 25.9604 16.5495 25.9141 15.9879 25.8668C15.7831 25.8496 15.5783 25.8326 15.3735 25.816C12.5432 25.5842 12.5432 25.5842 11.7676 25.1964C11.9614 24.752 12.1446 24.4995 12.535 24.2135C12.6298 24.1432 12.7247 24.0728 12.8224 24.0003C12.9245 23.9266 13.0266 23.8528 13.1319 23.7768C13.2909 23.6599 13.2909 23.6599 13.4531 23.5406C13.7752 23.3045 14.0985 23.0702 14.4224 22.8366C14.5124 22.7714 14.6024 22.7062 14.6951 22.6391C15.2897 22.2093 15.8879 21.7848 16.4872 21.3617C16.6866 21.2207 16.8859 21.0798 17.0852 20.9388C17.5071 20.6406 17.9293 20.3428 18.3516 20.0452C18.7775 19.745 19.2031 19.4443 19.6283 19.143C20.7382 18.357 21.8525 17.5783 22.9749 16.8102C23.6837 16.3242 24.3866 15.8302 25.0877 15.3331C27.7878 13.4206 30.5276 11.5601 33.3194 9.7838C33.4329 9.71116 33.5464 9.63853 33.6633 9.56369C35.466 8.42501 36.7331 8.20965 38.8664 8.21904Z" fill="#FFEECF"/>
<path d="M109.846 36.2578C109.831 41.3971 109.815 46.5363 109.798 51.6756C109.796 52.2859 109.794 52.8962 109.792 53.5066C109.791 53.628 109.791 53.7495 109.79 53.8747C109.784 55.8272 109.778 57.7797 109.772 59.7322C109.766 61.744 109.759 63.7559 109.753 65.7677C109.749 66.8942 109.745 68.0207 109.742 69.1471C109.735 71.73 109.723 74.3127 109.703 76.8955C109.699 77.3908 109.697 77.886 109.694 78.3813C109.691 79.1045 109.684 79.8276 109.673 80.5507C109.67 80.8034 109.668 81.0561 109.667 81.3088C109.662 83.0452 109.438 84.3631 108.192 85.6693C108.077 85.7913 107.962 85.9132 107.844 86.0388C107.726 86.1593 107.608 86.2798 107.487 86.404C107.374 86.5207 107.261 86.6375 107.144 86.7577C106.791 87.1193 106.434 87.4774 106.076 87.8345C105.946 87.9642 105.817 88.0939 105.683 88.2275C105.412 88.4992 105.14 88.7708 104.868 89.0421C104.454 89.4551 104.041 89.8689 103.628 90.2828C103.362 90.5483 103.097 90.8138 102.831 91.0793C102.709 91.2016 102.587 91.3239 102.461 91.45C101.836 92.0728 101.199 92.6701 100.53 93.2458C100.118 93.6084 99.7322 93.9954 99.3471 94.3868C99.2665 94.4681 99.1858 94.5493 99.1027 94.6329C98.8489 94.8885 98.5955 95.1446 98.3423 95.4008C96.4748 97.2905 96.4748 97.2905 95.5556 98.0729C94.8049 98.7442 94.109 99.4779 93.4015 100.194C92.4206 101.187 91.4457 102.169 90.3779 103.07C90.2536 103.181 90.2536 103.181 90.1269 103.295C89.5435 103.808 89.5435 103.808 89.0505 103.808C88.9131 101.931 88.8563 100.057 88.821 98.1762C88.8179 98.0164 88.8148 97.8567 88.8116 97.6921C88.7303 93.3895 88.7362 89.0865 88.7403 84.7833C88.7414 83.5985 88.7416 82.4136 88.7417 81.2287C88.7421 79.1176 88.743 77.0065 88.7444 74.8954C88.7458 72.8508 88.7468 70.8062 88.7475 68.7616C88.7475 68.6345 88.7475 68.5074 88.7476 68.3765C88.7478 67.7385 88.748 67.1005 88.7481 66.4626C88.7497 61.2123 88.7522 55.962 88.7556 50.7117C88.8838 50.6945 89.0121 50.6773 89.1442 50.6595C89.3142 50.6353 89.4843 50.6111 89.6595 50.5861C89.8273 50.5628 89.9951 50.5395 90.168 50.5155C91.5811 50.2391 92.6115 49.435 93.6574 48.5014C94.3903 47.8496 95.1576 47.2578 95.9456 46.6742C96.922 45.9502 97.8915 45.2195 98.8493 44.4711C98.9591 44.3853 99.0689 44.2995 99.182 44.2112C99.3939 44.0456 99.6057 43.8801 99.8174 43.7145C100.246 43.3806 100.677 43.05 101.108 42.7197C101.851 42.1495 102.588 41.5725 103.323 40.9929C103.975 40.4801 104.631 39.9735 105.289 39.4695C105.798 39.0789 106.303 38.683 106.806 38.2842C109.365 36.2578 109.365 36.2578 109.846 36.2578Z" fill="#FFEECF"/>
<path d="M7.78544 29.1834C8.63279 29.1666 9.45148 29.2054 10.2916 29.324C10.5241 29.3547 10.7566 29.3853 10.9891 29.4157C11.1122 29.4319 11.2352 29.4481 11.362 29.4649C17.0222 30.2016 22.7343 30.4491 28.4309 30.7483C31.4029 30.9057 34.3679 31.1312 37.3342 31.3708C40.1498 31.5981 42.9653 31.7956 45.7855 31.9563C48.0423 32.085 50.2954 32.2397 52.5486 32.4195C52.7751 32.4376 53.0016 32.4557 53.2281 32.4737C53.3377 32.4824 53.4473 32.4912 53.5602 32.5002C54.9036 32.6061 56.2483 32.6923 57.5933 32.7753C57.7597 32.7859 57.9261 32.7964 58.0976 32.8073C58.2409 32.816 58.3843 32.8248 58.532 32.8338C58.8455 32.8605 59.1581 32.8991 59.4695 32.9447C59.994 33.0178 60.5064 33.053 61.0353 33.0763C61.2489 33.0862 61.4626 33.0961 61.6763 33.106C61.7908 33.1112 61.9053 33.1163 62.0234 33.1216C64.8632 33.2503 67.7011 33.4117 70.539 33.5774C70.9954 33.604 71.4517 33.6304 71.9081 33.6566C72.4535 33.6879 72.9989 33.7197 73.5443 33.7519C73.7475 33.7638 73.9508 33.7756 74.154 33.7872C74.4353 33.8033 74.7166 33.8201 74.9978 33.8368C75.2354 33.8507 75.2354 33.8507 75.4778 33.8649C75.9281 33.9033 76.3649 33.9746 76.8102 34.0506C77.0133 34.0679 77.2167 34.0812 77.4203 34.0897C77.5888 34.0971 77.5888 34.0971 77.7606 34.1047C77.8803 34.1095 77.9999 34.1142 78.1232 34.1191C78.3861 34.1306 78.6489 34.142 78.9117 34.1534C79.0488 34.1592 79.1859 34.165 79.3271 34.1709C81.3951 34.2584 83.4628 34.3529 85.5286 34.4835C85.8215 34.502 86.1144 34.5198 86.4073 34.5376C86.5807 34.549 86.7541 34.5603 86.9328 34.572C87.0832 34.5817 87.2336 34.5914 87.3886 34.6014C87.7244 34.6405 87.7244 34.6405 87.8719 34.788C87.8865 35.0257 87.8908 35.264 87.891 35.5021C87.8917 35.7315 87.8917 35.7315 87.8924 35.9656C87.8921 36.1335 87.8918 36.3014 87.8915 36.4743C87.8916 36.6484 87.8918 36.8224 87.8919 37.0017C87.892 37.3735 87.8917 37.7454 87.8911 38.1173C87.8903 38.672 87.8911 39.2268 87.8921 39.7816C87.8926 42.1516 87.8353 44.5147 87.7244 46.8821C84.5444 46.7698 81.3698 46.5599 78.1945 46.3583C77.7277 46.3287 77.2609 46.2992 76.7941 46.2698C71.8609 45.9579 66.9314 45.6095 62.0029 45.2305C60.3116 45.101 58.6194 44.9849 56.9269 44.8726C55.0543 44.7481 53.1835 44.611 51.3131 44.4577C48.7485 44.2477 46.1812 44.0848 43.6132 43.9227C40.835 43.7473 38.0584 43.5576 35.2829 43.3424C32.2519 43.1073 29.2196 42.9011 26.1858 42.7059C23.7307 42.5478 21.2769 42.3802 18.8241 42.1903C17.1764 42.0628 15.5285 41.9536 13.8786 41.8582C12.519 41.779 11.1607 41.6943 9.8042 41.5725C9.68001 41.562 9.55582 41.5516 9.42788 41.5408C8.33809 41.4359 8.33809 41.4359 7.93293 41.13C7.78371 40.8638 7.78371 40.8638 7.68404 40.5585C7.65001 40.4585 7.61598 40.3585 7.58092 40.2555C7.55107 40.1547 7.52122 40.0539 7.49046 39.9501C7.46475 39.8648 7.43904 39.7795 7.41255 39.6917C7.32591 39.2789 7.3219 38.8921 7.31921 38.4701C7.31779 38.2904 7.31638 38.1107 7.31492 37.9256C7.31429 37.7319 7.31366 37.5381 7.31302 37.3385C7.31217 37.1368 7.31132 36.9351 7.31047 36.7334C7.30892 36.3108 7.30806 35.8881 7.30754 35.4655C7.30674 34.9259 7.30319 34.3864 7.29899 33.8469C7.29624 33.4302 7.29548 33.0135 7.29525 32.5969C7.29459 32.3019 7.29185 32.0069 7.28906 31.7119C7.29139 30.7578 7.31142 30.0224 7.78544 29.1834Z" fill="#FFEECF"/>
<path d="M39.6813 53.4189C39.943 53.4401 40.2048 53.4612 40.4665 53.4823C41.1635 53.5387 41.8603 53.596 42.5572 53.6535C43.1358 53.7012 43.7145 53.7483 44.2932 53.7954C48.0827 54.1037 51.8714 54.4206 55.6589 54.753C55.8935 54.7736 55.8935 54.7736 56.1328 54.7945C56.4347 54.8211 56.7366 54.8477 57.0385 54.8745C57.8198 54.9432 58.6011 55.0066 59.3833 55.0636C59.5502 55.076 59.717 55.0885 59.8889 55.1013C60.2067 55.1247 60.5245 55.1472 60.8424 55.1686C62.7623 55.3111 64.1391 55.8914 65.4532 57.3487C67.1169 59.4004 67.2692 61.7858 67.0458 64.3246C66.8007 66.3582 66.0492 68.1725 64.4606 69.5101C61.9624 71.2733 58.5714 70.666 55.7384 70.3892C53.6805 70.1891 51.6201 70.0272 49.5587 69.8682C48.943 69.8207 48.3272 69.7727 47.7115 69.7247C45.9472 69.5873 44.1828 69.4509 42.418 69.3189C41.7452 69.2684 41.0724 69.2169 40.3996 69.1651C40.0904 69.1416 39.7812 69.1186 39.472 69.0961C33.6673 68.6737 33.6673 68.6737 31.9733 66.7879C30.6608 65.0751 30.2517 63.3902 30.2864 61.2571C30.2848 60.9853 30.2848 60.9853 30.2832 60.7081C30.299 58.4098 30.9057 56.2505 32.5108 54.5429C34.6298 52.7647 37.1352 53.2071 39.6813 53.4189Z" fill="#FFA500"/>
<path d="M38.8664 8.21904C38.9638 8.21929 39.0613 8.21954 39.1617 8.2198C41.2038 8.22521 43.2436 8.27659 45.2844 8.34579C45.5645 8.35498 45.5645 8.35498 45.8503 8.36437C49.7934 8.49384 53.7356 8.64867 57.6776 8.8059C58.1581 8.82497 58.6385 8.84376 59.119 8.86248C59.8874 8.89249 60.6557 8.9234 61.424 8.95494C61.7074 8.96645 61.9907 8.9777 62.2741 8.98864C63.8979 9.05163 65.5121 9.15106 67.1295 9.31084C68.3885 9.43459 69.6476 9.48989 70.9113 9.53808C73.6823 9.64501 76.4456 9.81666 79.211 10.0182C79.3395 10.0275 79.468 10.0369 79.6003 10.0465C79.7271 10.0558 79.854 10.065 79.9846 10.0746C81.0882 10.1544 82.1924 10.2202 83.2971 10.283C85.0063 10.3805 86.7106 10.5068 88.4157 10.6595C90.4911 10.8453 92.5678 10.995 94.6471 11.1296C94.7881 11.1388 94.929 11.148 95.0743 11.1575C96.2956 11.2368 97.5168 11.3157 98.7394 11.3726C98.8744 11.3789 99.0093 11.3852 99.1483 11.3917C99.4041 11.4033 99.66 11.4144 99.9158 11.4249C100.444 11.4485 100.932 11.4869 101.441 11.6274C101.39 11.9928 101.324 12.1837 101.072 12.457C99.8178 13.1469 98.2673 13.0134 96.8779 13.0101C96.7477 13.01 96.6176 13.01 96.4835 13.0099C93.9542 13.003 91.4381 12.8596 88.9148 12.6961C84.2828 12.3962 79.6487 12.1515 75.0126 11.9224C74.8212 11.9129 74.6298 11.9034 74.4326 11.8936C67.8378 11.5674 61.2419 11.301 54.6427 11.0807C54.0085 11.0594 53.3743 11.0381 52.7401 11.0167C52.5128 11.0091 52.5128 11.0091 52.2808 11.0013C49.9731 10.9232 47.6674 10.8214 45.3619 10.6932C43.9105 10.6129 42.4604 10.5571 41.0072 10.5212C40.8236 10.5163 40.6399 10.5114 40.4507 10.5063C39.2194 10.4852 38.4452 10.8044 37.4306 11.4799C37.193 11.6342 37.193 11.6342 36.9505 11.7916C36.4265 12.1353 35.9098 12.4892 35.3934 12.8442C35.2085 12.9706 35.0235 13.097 34.8385 13.2233C33.7864 13.9429 32.7402 14.6698 31.7074 15.4166C31.1446 15.8232 30.5776 16.2236 30.0101 16.6236C29.9046 16.698 29.7991 16.7725 29.6905 16.8492C29.1644 17.2204 28.6379 17.5908 28.1106 17.9602C26.0254 19.423 23.98 20.9379 21.9455 22.4702C20.8742 23.2746 19.7892 24.0603 18.6977 24.8371C18.5041 24.977 18.3127 25.12 18.1238 25.2662C17.6125 25.6561 17.2747 25.882 16.6255 25.8509C16.4762 25.8442 16.327 25.8376 16.1732 25.8307C15.9848 25.8161 15.7964 25.8014 15.6023 25.7863C15.4742 25.7773 15.3461 25.7682 15.214 25.7589C14.7779 25.7275 14.342 25.6931 13.9062 25.6573C13.7634 25.6458 13.6206 25.6343 13.4735 25.6224C13.2701 25.6037 13.2701 25.6037 13.0627 25.5847C12.9411 25.5739 12.8195 25.5631 12.6943 25.5519C12.3398 25.4882 12.0799 25.3727 11.7676 25.1964C11.9614 24.752 12.1446 24.4995 12.535 24.2135C12.6298 24.1432 12.7247 24.0728 12.8224 24.0003C12.9245 23.9266 13.0266 23.8528 13.1319 23.7768C13.2909 23.6599 13.2909 23.6599 13.4531 23.5406C13.7752 23.3045 14.0985 23.0702 14.4224 22.8366C14.5124 22.7714 14.6024 22.7062 14.6951 22.6391C15.2897 22.2093 15.8879 21.7848 16.4872 21.3617C16.6866 21.2207 16.8859 21.0798 17.0852 20.9388C17.5071 20.6406 17.9293 20.3428 18.3516 20.0452C18.7775 19.745 19.2031 19.4443 19.6283 19.143C20.7382 18.357 21.8525 17.5783 22.9749 16.8102C23.6837 16.3242 24.3866 15.8302 25.0877 15.3331C27.7878 13.4206 30.5276 11.5601 33.3194 9.7838C33.4329 9.71116 33.5464 9.63853 33.6633 9.56369C35.466 8.42501 36.7331 8.20965 38.8664 8.21904Z" fill="white"/>
<path d="M112.503 17.375C112.664 19.2108 112.688 21.045 112.694 22.8869C112.696 23.2266 112.699 23.5662 112.703 23.9058C112.709 24.4031 112.712 24.9003 112.713 25.3976C112.716 25.5476 112.718 25.6975 112.721 25.8521C112.718 27 112.486 27.9991 111.802 28.9396C111.67 29.0603 111.67 29.0603 111.535 29.1833C111.432 29.2786 111.328 29.3738 111.222 29.472C110.577 30.0244 109.922 30.5622 109.258 31.0915C109.089 31.2281 108.92 31.3648 108.751 31.5017C107.681 32.3648 106.599 33.2086 105.505 34.041C103.417 35.631 101.354 37.253 99.2947 38.8801C98.3481 39.6274 97.3948 40.3631 96.4273 41.0833C96.0331 41.3791 95.6425 41.6788 95.2531 41.9809C94.5868 42.4974 93.9179 43.0106 93.2373 43.5082C93.1228 43.5924 93.0084 43.6766 92.8905 43.7634C92.792 43.8161 92.6935 43.8687 92.592 43.923C92.446 43.8743 92.3 43.8256 92.1496 43.7755C92.1084 42.5344 92.077 41.2936 92.0579 40.052C92.0487 39.4753 92.0362 38.899 92.0161 38.3226C91.9967 37.765 91.9862 37.2079 91.9816 36.65C91.9784 36.4384 91.9721 36.2269 91.9624 36.0155C91.923 35.1122 91.898 34.269 92.5301 33.559C92.9631 33.1355 93.4315 32.7769 93.9194 32.4189C94.1596 32.2259 94.3994 32.0325 94.6384 31.8381C94.7575 31.745 94.8765 31.6518 94.9991 31.5558C95.473 31.1759 95.931 30.7795 96.3899 30.3817C97.1495 29.7249 97.9247 29.0946 98.7181 28.4792C99.4187 27.9341 100.104 27.3718 100.787 26.8051C101.746 26.0108 102.72 25.2433 103.71 24.4895C106.3 22.5074 108.827 20.4292 111.236 18.2306C111.356 18.1216 111.476 18.0127 111.6 17.9004C111.709 17.8002 111.818 17.7 111.93 17.5968C112.208 17.375 112.208 17.375 112.503 17.375Z" fill="#FFEECF"/>
<path d="M7.78532 29.1834C8.63267 29.1666 9.45135 29.2054 10.2915 29.324C10.524 29.3547 10.7565 29.3853 10.989 29.4157C11.1121 29.4319 11.2351 29.4481 11.3618 29.4649C17.0221 30.2016 22.7341 30.4491 28.4307 30.7483C31.4028 30.9057 34.3678 31.1312 37.334 31.3708C40.1496 31.5981 42.9652 31.7956 45.7854 31.9563C48.0422 32.085 50.2952 32.2397 52.5485 32.4195C52.775 32.4376 53.0015 32.4557 53.228 32.4737C53.3376 32.4824 53.4472 32.4912 53.5601 32.5002C54.9035 32.6061 56.2482 32.6923 57.5932 32.7753C57.7596 32.7859 57.926 32.7964 58.0975 32.8073C58.2408 32.816 58.3842 32.8248 58.5318 32.8338C58.8454 32.8605 59.158 32.8991 59.4694 32.9447C59.9938 33.0178 60.5062 33.053 61.0351 33.0763C61.2488 33.0862 61.4624 33.0961 61.6761 33.106C61.7906 33.1111 61.9051 33.1163 62.0232 33.1216C64.8573 33.2503 67.6902 33.4073 70.5227 33.5693C70.977 33.5952 71.4314 33.6206 71.8858 33.6455C72.4293 33.6753 72.9727 33.7062 73.5161 33.7379C73.7183 33.7495 73.9205 33.7608 74.1227 33.7716C75.1519 33.827 76.116 33.8998 77.1051 34.198C76.9555 34.9026 76.6317 35.3476 76.0289 35.7536C75.6244 35.971 75.2629 36.1016 74.819 36.2168C74.6836 36.2539 74.5483 36.2909 74.4088 36.3291C72.9791 36.5409 71.4987 36.3998 70.0625 36.3021C69.887 36.2906 69.7114 36.2791 69.5306 36.2673C68.9581 36.2296 68.3857 36.191 67.8133 36.1523C67.612 36.1388 67.4107 36.1255 67.2095 36.1121C64.3673 35.9232 61.5266 35.7179 58.6866 35.4982C56.6856 35.3436 54.6843 35.1981 52.6818 35.0657C52.5751 35.0586 52.4683 35.0516 52.3583 35.0443C51.9168 35.0151 51.4753 34.9859 51.0338 34.9568C45.6768 34.6033 40.3247 34.1983 34.9725 33.7768C34.8347 33.766 34.6969 33.7551 34.5549 33.744C34.2782 33.7222 34.0016 33.7004 33.725 33.6786C30.7338 33.4429 27.7417 33.2185 24.7493 32.9978C22.7742 32.8521 20.7993 32.7039 18.8251 32.5469C18.4696 32.5188 18.1141 32.4907 17.7586 32.4626C17.1081 32.4111 16.4577 32.3586 15.8074 32.3054C14.2597 32.1813 12.7307 32.0961 11.1776 32.1332C10.8301 32.6795 10.8445 33.1574 10.8434 33.7948C10.8431 33.8996 10.8428 34.0045 10.8426 34.1126C10.8424 34.3352 10.8429 34.5579 10.8441 34.7805C10.8457 35.1126 10.8442 35.4446 10.8423 35.7766C10.8404 37.7397 11.039 39.654 11.4725 41.5725C10.6045 41.6032 9.75364 41.5836 8.89149 41.4711C8.74699 41.4523 8.6025 41.4334 8.45363 41.4141C8.0803 41.2775 8.0803 41.2775 7.8268 40.9704C7.29255 39.7537 7.29757 38.592 7.29849 37.2809C7.29792 37.08 7.29728 36.8792 7.29658 36.6783C7.29548 36.2592 7.29551 35.8401 7.29629 35.421C7.29715 34.8861 7.29465 34.3512 7.29123 33.8163C7.28905 33.4022 7.28893 32.988 7.28939 32.5739C7.28927 32.2815 7.28724 31.9891 7.28516 31.6967C7.29002 30.7479 7.31584 30.0183 7.78532 29.1834Z" fill="white"/>
<path d="M36.9819 57.9076C37.1523 57.911 37.3226 57.9144 37.4982 57.9178C38.2991 57.9505 39.0963 58.0073 39.895 58.0739C41.2195 58.1781 42.5434 58.2704 43.8703 58.3389C44.0244 58.3469 44.1785 58.3549 44.3373 58.3631C44.6548 58.3794 44.9724 58.3956 45.2899 58.4117C48.2346 58.5626 51.1778 58.7345 54.1195 58.9344C54.4805 58.9588 54.8415 58.9828 55.2025 59.0063C60.9695 59.3831 60.9695 59.3831 61.9947 60.3093C62.5677 61.0723 62.9222 62.1164 62.8647 63.0759C62.6757 63.9893 62.3406 64.9931 61.6277 65.627C60.8006 66.1334 60.0596 66.2459 59.1026 66.2319C58.9868 66.2309 58.871 66.23 58.7517 66.229C57.3394 66.2075 55.9361 66.0818 54.5298 65.9588C53.885 65.9039 53.2401 65.8499 52.5952 65.7964C52.3309 65.7743 52.3309 65.7743 52.0613 65.7519C50.5759 65.6301 49.0896 65.5239 47.6028 65.421C47.2 65.393 46.7971 65.3648 46.3943 65.3364C46.2607 65.327 46.1272 65.3176 45.9896 65.3079C45.7192 65.2889 45.4489 65.2698 45.1785 65.2507C44.5082 65.2036 43.838 65.1573 43.1676 65.1127C42.5274 65.0702 41.8875 65.0255 41.2476 64.9795C41.0108 64.9629 40.774 64.947 40.5371 64.9319C38.6939 64.8141 36.7451 64.6806 35.218 63.5437C34.4831 62.631 34.3725 61.6277 34.4195 60.4868C34.5037 59.8211 34.6606 59.3543 35.0705 58.824C35.1371 58.7358 35.2036 58.6476 35.2722 58.5567C35.7964 57.9934 36.221 57.8925 36.9819 57.9076Z" fill="#FFEECF"/>
<path d="M12.6522 48.6529C13.0518 48.6369 13.4507 48.6252 13.8505 48.616C13.9627 48.6111 14.0749 48.6062 14.1904 48.6011C14.3007 48.5992 14.411 48.5973 14.5246 48.5953C14.6752 48.5907 14.6752 48.5907 14.8288 48.5859C15.3487 48.6912 15.6413 48.8998 16.0444 49.2429C16.1351 49.6774 16.1636 49.9931 16.1554 50.428C16.1567 50.5486 16.1579 50.6692 16.1592 50.7934C16.1624 51.1989 16.1592 51.6041 16.1561 52.0096C16.157 52.3006 16.1584 52.5915 16.1601 52.8825C16.1637 53.6782 16.1618 54.4737 16.1591 55.2694C16.1571 56.1163 16.1603 56.9631 16.163 57.81C16.1673 59.4312 16.1672 61.0524 16.1655 62.6736C16.1635 64.6359 16.1664 66.5982 16.1697 68.5605C16.1706 69.0874 16.1714 69.6144 16.1722 70.1413C16.1728 70.4921 16.1733 70.8429 16.1739 71.1937C16.1756 72.2443 16.177 73.2948 16.178 74.3453C16.183 79.1174 16.2014 83.8892 16.2449 88.6611C16.2489 89.1228 16.2524 89.5846 16.2557 90.0463C16.2609 90.7631 16.2675 91.4799 16.2753 92.1966C16.2779 92.4565 16.2801 92.7163 16.2817 92.9762C16.2059 95.4246 16.2059 95.4246 17.0953 97.6192C17.6127 98.4003 17.613 99.0658 17.5193 99.979C16.0503 99.8513 14.8314 99.3064 13.8321 98.2092C12.8505 96.9179 12.635 95.5614 12.6222 93.964C12.6207 93.8527 12.6193 93.7414 12.6178 93.6267C12.6133 93.2552 12.6097 92.8837 12.6061 92.5122C12.6031 92.2441 12.6001 91.9759 12.597 91.7077C12.5888 90.9754 12.5816 90.243 12.5747 89.5107C12.5703 89.0453 12.5657 88.58 12.561 88.1146C12.4892 80.9192 12.4819 73.7238 12.4857 66.528C12.4864 65.141 12.4859 63.7539 12.4852 62.3669C12.4845 61.0022 12.4844 59.6375 12.4848 58.2728C12.485 57.4695 12.4851 56.6663 12.4846 55.863C12.4841 55.1189 12.4844 54.3749 12.4853 53.6308C12.4855 53.3602 12.4854 53.0895 12.4851 52.8189C12.4836 51.4225 12.5001 50.0431 12.6522 48.6529Z" fill="white"/>
<path d="M119.747 79.4384C120.699 79.6534 121.604 80.3487 122.313 80.9934C122.656 81.2817 122.656 81.2817 123.052 81.2388C123.46 81.0804 123.734 80.8888 124.071 80.6091C124.186 80.5167 124.301 80.4243 124.42 80.3291C124.527 80.242 124.634 80.1549 124.743 80.0652C125.394 79.5366 125.83 79.3848 126.652 79.4292C127.081 79.4942 127.284 79.5651 127.546 79.9177C127.668 80.3775 127.695 80.5149 127.546 80.9501C127.028 81.6536 126.412 82.2556 125.757 82.8306C125.438 83.1474 125.438 83.1474 125.453 83.6049C125.643 84.0841 125.855 84.2719 126.263 84.5746C126.882 85.0947 127.493 85.8636 127.601 86.6746C127.528 87.2957 127.274 87.4847 126.808 87.8821C126.76 87.9308 126.711 87.9795 126.661 88.0296C125.9 88.1128 125.551 87.9406 124.955 87.4765C124.821 87.3739 124.687 87.2712 124.549 87.1654C124.289 86.9577 124.035 86.741 123.79 86.5155C123.316 86.1913 123.095 86.157 122.531 86.2597C122.09 86.5674 122.09 86.5674 121.692 86.9787C120.925 87.7239 120.925 87.7239 120.466 88.0296C119.861 88.0186 119.541 87.9726 119.074 87.5779C118.784 87.0322 118.737 86.5656 118.844 85.9648C119.045 85.591 119.306 85.2916 119.591 84.9784C120.136 84.4059 120.136 84.4059 120.331 83.6672C120.128 83.213 119.862 82.921 119.517 82.5633C118.94 81.9624 118.591 81.5734 118.484 80.7381C118.549 80.2127 118.549 80.2127 118.853 79.7702C119.286 79.4753 119.286 79.4753 119.747 79.4384Z" fill="#FFA500"/>
<path d="M63.8268 99.6279C64.0471 99.6533 64.2675 99.6787 64.4878 99.704C64.9455 99.757 65.4031 99.8108 65.8607 99.8651C66.4458 99.9345 67.0312 100.001 67.6166 100.067C68.07 100.119 68.5232 100.172 68.9763 100.226C69.1922 100.251 69.4081 100.276 69.6241 100.3C69.9252 100.334 70.226 100.37 70.5269 100.407C70.783 100.437 70.783 100.437 71.0443 100.467C71.7541 100.62 72.1306 100.846 72.5332 101.45C72.6329 102.496 72.6329 102.496 72.2659 102.99C71.2631 103.706 69.7297 103.348 68.5706 103.254C68.4194 103.242 68.2682 103.23 68.1124 103.218C67.6256 103.179 67.1388 103.14 66.6521 103.1C66.4871 103.087 66.3221 103.073 66.1521 103.06C62.2694 102.743 62.2694 102.743 60.3746 102.547C60.2171 102.532 60.0596 102.517 59.8974 102.501C59.757 102.486 59.6165 102.47 59.4718 102.454C59.3543 102.442 59.2367 102.429 59.1155 102.417C58.7508 102.317 58.6038 102.19 58.3743 101.893C58.2736 101.296 58.2843 100.721 58.3743 100.123C59.5827 98.7184 62.1927 99.4347 63.8268 99.6279Z" fill="white"/>
<path d="M105.349 56.5C105.911 56.6205 106.104 56.781 106.453 57.229C106.716 57.6976 106.679 58.1759 106.651 58.6945C106.644 58.9451 106.637 59.1957 106.63 59.4464C106.626 59.5825 106.621 59.7186 106.616 59.8588C106.597 60.4966 106.596 61.1343 106.593 61.7723C106.59 62.4748 106.581 63.1772 106.572 63.8796C106.568 64.2427 106.565 64.6058 106.562 64.9689C106.559 65.4996 106.552 66.0302 106.545 66.5609C106.545 66.7233 106.544 66.8857 106.544 67.053C106.54 67.2785 106.54 67.2785 106.535 67.5086C106.534 67.6403 106.533 67.7721 106.532 67.9078C106.43 68.3773 106.236 68.5557 105.865 68.8522C105.432 68.9444 105.432 68.9444 104.98 68.8522C104.599 68.5182 104.322 68.1261 104.095 67.6723C104.078 67.3547 104.07 67.0366 104.067 66.7186C104.065 66.6208 104.064 66.5229 104.063 66.422C104.059 66.0975 104.057 65.773 104.055 65.4484C104.054 65.3375 104.053 65.2266 104.052 65.1124C104.048 64.5251 104.046 63.9379 104.044 63.3507C104.041 62.7449 104.034 62.1393 104.027 61.5336C104.022 61.0672 104.02 60.6008 104.019 60.1344C104.018 59.9112 104.016 59.688 104.013 59.4648C103.983 57.499 103.983 57.499 104.436 56.9161C104.833 56.6106 104.833 56.6106 105.349 56.5Z" fill="#FFA500"/>
<path d="M118.991 0.859686C119.405 1.12423 119.656 1.30493 119.876 1.74462C120.013 2.39944 119.988 2.88949 119.633 3.46667C119.334 3.84204 119.026 4.19807 118.696 4.54691C118.595 4.65547 118.494 4.76403 118.39 4.87588C117.885 5.34012 117.322 5.35284 116.665 5.34427C116.336 5.28435 116.336 5.28435 115.885 4.90641C115.546 4.30567 115.495 4.04667 115.599 3.367C115.901 2.3102 116.468 1.62843 117.369 1.00718C117.916 0.824774 118.422 0.776549 118.991 0.859686Z" fill="#FFA500"/>
<path d="M10.2927 105.434C10.8427 105.694 11.1027 105.919 11.4542 106.411C11.7253 107.225 11.7693 108.015 11.4449 108.817C11.0212 109.299 10.7145 109.529 10.0628 109.611C9.3831 109.639 8.91735 109.609 8.29237 109.324C7.70684 108.753 7.62462 108.206 7.5918 107.416C7.61267 106.638 7.87329 106.256 8.38455 105.683C9.01867 105.319 9.57813 105.322 10.2927 105.434Z" fill="#FFA500"/>
<path d="M117.214 6.57276C118.346 6.74767 119.233 7.66833 119.931 8.51834C120.363 9.12416 120.491 9.56114 120.466 10.3066C120.272 10.6754 120.272 10.6754 119.876 10.8966C119.359 11.0071 118.918 11.0151 118.401 10.8966C118.088 10.6807 117.87 10.4494 117.624 10.1603C117.27 9.74944 116.857 9.42286 116.439 9.07892C116.007 8.65295 115.901 8.32815 115.848 7.72559C115.894 7.20938 115.894 7.20938 116.041 6.84988C116.423 6.55155 116.738 6.54584 117.214 6.57276Z" fill="#FFA500"/>
<path d="M122.236 43.9321C122.779 44.1735 123.262 44.4349 123.593 44.9397C123.826 45.5703 123.808 46.2229 123.711 46.8819C123.283 47.4641 122.786 47.8447 122.067 47.969C121.456 47.9872 121.038 47.9729 120.549 47.5824C120.054 47.0512 119.898 46.8207 119.83 46.0983C119.897 45.3071 120.109 44.7555 120.641 44.1625C121.186 43.8596 121.635 43.8031 122.236 43.9321Z" fill="#FFA500"/>
<path d="M7.78427 13.2521C8.57597 13.5307 9.03201 13.9777 9.40664 14.727C9.50703 15.5635 9.31256 16.0205 8.87372 16.7031C8.52993 17.1002 8.18382 17.0904 7.67365 17.1329C6.97351 17.1239 6.58324 16.8984 6.0144 16.4968C5.45032 15.8764 5.37463 15.2769 5.38123 14.4654C5.44517 13.9795 5.66419 13.7292 6.0144 13.3996C6.55936 13.1271 7.18824 13.2017 7.78427 13.2521Z" fill="#FFA500"/>
<path d="M110.832 0.508203C111.981 0.691329 112.807 1.63791 113.535 2.48029C113.837 2.99179 113.918 3.35813 113.83 3.95518C113.44 4.40507 113.203 4.53207 112.611 4.60217C111.948 4.53347 111.58 4.28511 111.083 3.87222C111 3.80496 110.916 3.7377 110.83 3.66841C110.111 3.07356 109.484 2.53477 109.332 1.5677C109.503 0.606818 109.913 0.459271 110.832 0.508203Z" fill="#FFA500"/>
<path d="M2.62302 63.102C3.22934 63.3638 3.61606 63.7122 3.95042 64.2819C4.05528 64.9227 4.0206 65.4443 3.76606 66.0425C3.41299 66.4586 3.10311 66.6131 2.56368 66.6964C1.55144 66.7229 1.55144 66.7229 1.00065 66.3098C0.505179 65.6286 0.337275 65.1503 0.352502 64.3101C0.446077 63.7903 0.741106 63.5596 1.14814 63.2494C1.61946 63.0138 2.11027 63.0476 2.62302 63.102Z" fill="#FFA500"/>
<path d="M106.013 49.2393C106.5 49.5699 106.618 50.0076 106.75 50.5667C106.814 51.2578 106.838 51.8417 106.556 52.4841C106.217 52.8865 105.964 53.059 105.441 53.1386C104.829 53.0529 104.631 52.8028 104.243 52.3366C104.036 51.9235 104.065 51.5713 104.058 51.1106C104.055 50.9439 104.051 50.7771 104.047 50.6053C104.1 50.078 104.226 49.8099 104.538 49.3868C105.036 49.0088 105.426 49.0771 106.013 49.2393Z" fill="#FFA500"/>
<path d="M10.7349 39.0625C10.8322 39.1112 10.9296 39.1598 11.0299 39.21C11.124 39.6079 11.2022 39.9966 11.2695 40.3991C11.2893 40.511 11.3091 40.6229 11.3294 40.7382C11.3782 41.0152 11.4254 41.2925 11.4723 41.5698C10.3072 41.6111 9.22352 41.4983 8.08008 41.2748C8.27476 41.1775 8.46945 41.0801 8.67003 40.9799C8.7187 41.0285 8.76738 41.0772 8.81752 41.1273C9.10866 41.1273 9.39982 41.1269 9.69093 41.1227C10.0522 41.1282 10.3849 41.1873 10.7349 41.2748C10.9315 40.8324 10.9315 40.8324 10.7349 40.3899C10.7249 40.1596 10.7223 39.929 10.7257 39.6985C10.727 39.5793 10.7283 39.4601 10.7297 39.3373C10.7314 39.2466 10.7331 39.1559 10.7349 39.0625Z" fill="white"/>
<path d="M13.832 97.9062C14.1901 98.0597 14.4135 98.1919 14.6778 98.483C15.0831 98.8568 15.4538 98.9997 15.9706 99.1876C16.1364 99.249 16.3022 99.3104 16.473 99.3736C16.8216 99.492 17.1605 99.5961 17.5193 99.6761C17.5193 99.7735 17.5193 99.8708 17.5193 99.9711C16.069 99.845 14.808 99.308 13.832 98.2012C13.832 98.1039 13.832 98.0065 13.832 97.9062Z" fill="white"/>
<path d="M38.021 10.6016C38.167 10.6989 38.313 10.7962 38.4634 10.8965C38.0826 11.1365 37.7016 11.3762 37.3204 11.6155C37.2128 11.6834 37.1052 11.7513 36.9943 11.8212C36.8375 11.9196 36.8375 11.9196 36.6775 12.02C36.5817 12.0802 36.4859 12.1405 36.3872 12.2026C36.1022 12.3723 35.8122 12.5218 35.5137 12.6664C35.6769 12.1768 35.7414 12.129 36.1543 11.8633C36.253 11.7988 36.3517 11.7344 36.4533 11.668C36.557 11.602 36.6606 11.536 36.7673 11.4681C37.4274 11.0755 37.4274 11.0755 38.021 10.6016Z" fill="white"/>
<path d="M24.0093 16.0547C24.1066 16.1034 24.2039 16.152 24.3042 16.2022C24.0122 16.3482 24.0122 16.3482 23.7143 16.4972C23.8116 16.3511 23.909 16.2051 24.0093 16.0547ZM23.4193 16.4972C23.5167 16.5458 23.614 16.5945 23.7143 16.6446C23.5683 16.6446 23.4223 16.6446 23.2718 16.6446C23.3205 16.596 23.3692 16.5473 23.4193 16.4972ZM22.9768 16.7921C23.0742 16.8408 23.1715 16.8895 23.2718 16.9396C23.1884 17.0001 23.1049 17.0605 23.0189 17.1228C22.9107 17.2023 22.8025 17.2818 22.6911 17.3637C22.5833 17.4424 22.4755 17.5211 22.3644 17.6022C22.0755 17.8069 22.0755 17.8069 21.9444 18.1195C21.7984 18.1195 21.6524 18.1195 21.502 18.1195C21.682 17.5795 21.8512 17.5056 22.3224 17.2069C22.4442 17.1288 22.5661 17.0507 22.6917 16.9702C22.7858 16.9114 22.8799 16.8527 22.9768 16.7921Z" fill="white"/>
<path d="M21.0589 18.1172C21.1563 18.1659 21.2536 18.2145 21.3539 18.2647C20.8386 18.8406 20.4594 19.0655 19.7315 19.2971C19.6829 19.4431 19.6342 19.5891 19.584 19.7396C19.4867 19.6909 19.3894 19.6422 19.2891 19.5921C19.8349 19.0132 20.4025 18.5676 21.0589 18.1172Z" fill="white"/>
<path d="M8.52254 40.9766C8.61989 41.0252 8.71723 41.0739 8.81752 41.1241C8.997 41.121 9.17647 41.118 9.36139 41.1148C9.97115 41.1048 10.4531 41.2268 11.0299 41.419C11.0299 41.4677 11.0299 41.5164 11.0299 41.5665C10.6211 41.5497 10.2125 41.531 9.80385 41.5112C9.68797 41.5066 9.5721 41.5021 9.4527 41.4974C9.34101 41.4917 9.22931 41.486 9.11423 41.4801C9.0115 41.4755 8.90878 41.4708 8.80294 41.4661C8.52254 41.419 8.52254 41.419 8.08008 41.1241C8.22609 41.0754 8.37211 41.0267 8.52254 40.9766Z" fill="white"/>
<path d="M93.4766 11.1875C94.0606 11.1875 94.6447 11.1875 95.2464 11.1875C95.2464 11.2362 95.2464 11.2848 95.2464 11.335C95.0031 11.335 94.7597 11.335 94.509 11.335C94.509 11.4323 94.509 11.5297 94.509 11.63C94.1683 11.5813 93.8276 11.5326 93.4766 11.4825C93.4766 11.3851 93.4766 11.2878 93.4766 11.1875Z" fill="white"/>
<path d="M13.832 97.9062C14.3285 98.119 14.6448 98.3978 15.0119 98.7912C14.9633 98.8885 14.9146 98.9859 14.8645 99.0862C14.6915 98.9459 14.5196 98.8043 14.3482 98.6621C14.2524 98.5834 14.1566 98.5047 14.0579 98.4236C13.9833 98.3502 13.9088 98.2768 13.832 98.2012C13.832 98.1039 13.832 98.0065 13.832 97.9062Z" fill="white"/>
<path d="M58.5205 101.305C59.2395 102.005 59.2395 102.005 59.4055 102.337C59.0552 102.3 59.0552 102.3 58.668 102.19C58.4652 101.904 58.4652 101.904 58.373 101.6C58.4217 101.502 58.4704 101.405 58.5205 101.305Z" fill="white"/>
<path d="M19.1408 24.0156C19.2381 24.113 19.3355 24.2103 19.4358 24.3106C19.0464 24.554 18.657 24.7973 18.2559 25.048C18.2559 24.902 18.2559 24.756 18.2559 24.6056C18.6983 24.2829 18.6983 24.2829 19.1408 24.0156Z" fill="white"/>
</svg>
