<svg width="18" height="18" viewBox="0 0 18 18" fill="none" xmlns="http://www.w3.org/2000/svg">
<g clip-path="url(#clip0_325_465)">
<path d="M15.3544 7.66575C15.3671 7.5495 15.375 7.43212 15.375 7.3125C15.375 5.55225 13.9478 4.125 12.1875 4.125C11.3355 4.125 10.5634 4.46137 9.9915 5.00587C9.31575 3.80925 8.03475 3 6.5625 3C4.38788 3 2.625 4.76287 2.625 6.9375C2.625 7.18237 2.6505 7.42125 2.69325 7.65375C1.13737 8.1105 0 9.54637 0 11.25C0 13.3211 1.67888 15 3.75 15H14.25C16.3211 15 18 13.3211 18 11.25C18 9.56325 16.8862 8.1375 15.3544 7.66575Z" fill="#EFF3F9"/>
<path d="M16.9471 8.64844C17.1413 9.10181 17.2501 9.60056 17.2501 10.1252C17.2501 12.1963 15.5712 13.8752 13.5001 13.8752H2.25008C1.74533 13.8752 1.26421 13.7739 0.824707 13.5932C1.51208 14.4501 2.56621 15.0002 3.75008 15.0002H14.2501C16.3212 15.0002 18.0001 13.3213 18.0001 11.2502C18.0001 10.2388 17.5981 9.32306 16.9471 8.64844Z" fill="#CFE0F3"/>
<path d="M15.3751 7.31437C15.3751 7.43438 15.3676 7.55063 15.3526 7.66688C14.9453 7.54425 14.4537 7.5105 14.1451 7.50263C14.0135 7.49925 13.9253 7.36275 13.9805 7.24312C14.1541 6.86625 14.2501 6.44513 14.2501 6.00188C14.2501 5.51063 14.1301 5.04937 13.9238 4.64062C14.7976 5.21062 15.3751 6.19688 15.3751 7.31437Z" fill="#CFE0F3"/>
<path d="M4.16335 6.89064C4.14198 6.89064 4.12023 6.88877 4.0981 6.88502C3.8941 6.84939 3.7576 6.65477 3.7936 6.45077C3.8941 5.87777 4.16373 5.35839 4.57248 4.94927C4.98198 4.54014 5.50135 4.27052 6.07435 4.17002C6.27948 4.13327 6.4726 4.27052 6.5086 4.47452C6.5446 4.67852 6.4081 4.87277 6.2041 4.90877C5.78335 4.98264 5.40273 5.17989 5.1031 5.47952C4.80348 5.77914 4.60623 6.15977 4.53235 6.58052C4.50048 6.76239 4.34223 6.89064 4.16335 6.89064Z" fill="white"/>
</g>
<defs>
<clipPath id="clip0_325_465">
<rect width="18" height="18" fill="white"/>
</clipPath>
</defs>
</svg>
