<svg width="50" height="40" viewBox="0 0 50 40" fill="none" xmlns="http://www.w3.org/2000/svg">
<g clip-path="url(#clip0_3559_44713)">
<path d="M39.4893 5.46872C39.489 5.67768 39.4772 5.88645 39.4541 6.09413C37.7472 5.34151 35.8183 5.26007 34.0537 5.86603C33.0693 4.17525 31.679 2.75516 30.0078 1.73371C30.7586 0.932214 31.7338 0.374728 32.8065 0.133641C33.8792 -0.107446 34.9998 -0.0209693 36.0226 0.38192C37.0454 0.78481 37.9229 1.48541 38.5412 2.39262C39.1595 3.29982 39.4898 4.37168 39.4893 5.46872Z" fill="#FFA500"/>
<path d="M49.4447 19.9897C49.4452 21.9043 48.6983 23.7438 47.3624 25.1183C46.0265 26.4928 44.2065 27.2943 42.2884 27.3528H41.8086L7.81025 27.2953C7.70311 27.2953 7.59596 27.3033 7.49042 27.3033C6.42072 27.3004 5.36405 27.069 4.3914 26.6248C3.41876 26.1807 2.55267 25.534 1.85135 24.7281C1.15003 23.9223 0.629714 22.976 0.325378 21.9529C0.0210423 20.9298 -0.0602684 19.8535 0.086913 18.7964C0.234095 17.7394 0.606359 16.726 1.17869 15.8243C1.75101 14.9227 2.51014 14.1538 3.40507 13.5692C4.29999 12.9846 5.30997 12.5978 6.36714 12.435C7.42431 12.2721 8.50417 12.3369 9.53416 12.625C9.60006 12.121 9.84721 11.6581 10.2296 11.3224C10.612 10.9866 11.1037 10.8009 11.6131 10.7998C11.7697 10.7994 11.9259 10.8171 12.0784 10.8524C12.2746 8.34967 13.2676 5.97503 14.9126 4.07536C16.5576 2.1757 18.7683 0.850518 21.2218 0.293449C23.6753 -0.26362 26.2431 -0.023448 28.5501 0.978924C30.857 1.9813 32.7823 3.69335 34.0447 5.86497C35.1572 5.48179 36.3454 5.36947 37.5102 5.53731C38.675 5.70514 39.7828 6.14824 40.7412 6.82981C41.6996 7.51137 42.4808 8.41162 43.0197 9.45547C43.5587 10.4993 43.8398 11.6566 43.8396 12.8308V12.8388C45.4398 13.2355 46.861 14.1551 47.8767 15.4509C48.8925 16.7468 49.4444 18.3446 49.4447 19.9897Z" fill="#1C282B"/>
<path d="M30.2797 28.9141L27.0942 32.0922L25.7381 33.4468L19.1719 39.9978L22.7892 33.45L23.536 32.097L24.2061 30.8861H20.0674L21.681 28.9141H30.2797Z" fill="#FFD700"/>
</g>
<defs>
<clipPath id="clip0_3559_44713">
<rect width="50" height="40" fill="white"/>
</clipPath>
</defs>
</svg>
