<svg width="32" height="32" viewBox="0 0 32 32" fill="none" xmlns="http://www.w3.org/2000/svg">
<path d="M29.3324 16.9304C29.3304 18.8899 29.3155 20.5553 29.2042 21.9219C29.075 23.5077 28.8102 24.8328 28.2175 25.9333C27.9562 26.4187 27.6349 26.8535 27.2439 27.2445C26.134 28.3543 24.72 28.8571 22.9282 29.098C21.1773 29.3333 18.9336 29.3333 16.0705 29.3333H15.9281C13.0651 29.3333 10.8213 29.3333 9.07062 29.098C7.2787 28.8571 5.86471 28.3543 4.75487 27.2445C3.77096 26.2605 3.26286 25.036 2.99266 23.5168C2.72723 22.0245 2.67867 20.1679 2.66858 17.8623C2.66602 17.2759 2.66602 16.6556 2.66602 16.0012V15.9288C2.666 13.0657 2.66599 10.822 2.90136 9.07127C3.14228 7.27935 3.64503 5.86537 4.75487 4.75553C5.86471 3.64569 7.2787 3.14294 9.07062 2.90202C10.6275 2.6927 12.6306 2.66954 15.0687 2.66699C15.5824 2.66645 15.9993 3.08315 15.9993 3.5969C15.9993 4.11066 15.5823 4.52694 15.0685 4.52749C12.596 4.5301 10.756 4.55262 9.31851 4.74589C7.7329 4.95907 6.77696 5.36453 6.07042 6.07107C5.36387 6.77762 4.95842 7.73355 4.74523 9.31917C4.52846 10.9316 4.52648 13.0503 4.52648 16C4.52648 16.3603 4.52648 16.7085 4.52691 17.0459L5.76863 15.9595C6.89888 14.9704 8.60235 15.0272 9.66431 16.0891L14.9849 21.4097C15.8373 22.2621 17.1791 22.3783 18.1653 21.6852L18.5352 21.4252C19.9544 20.4279 21.8745 20.5435 23.1639 21.7039L26.6745 24.8635C27.0279 24.1213 27.2377 23.1463 27.3498 21.7708C27.4554 20.4748 27.4699 18.9007 27.4719 16.9305C27.4724 16.4168 27.8887 16 28.4024 16C28.9161 16 29.3329 16.4167 29.3324 16.9304Z" fill="#808080"/>
<path fill-rule="evenodd" clip-rule="evenodd" d="M23.332 14.6667C20.5036 14.6667 19.0894 14.6667 18.2107 13.7881C17.332 12.9094 17.332 11.4952 17.332 8.66675C17.332 5.83832 17.332 4.42411 18.2107 3.54543C19.0894 2.66675 20.5036 2.66675 23.332 2.66675C26.1604 2.66675 27.5747 2.66675 28.4534 3.54543C29.332 4.42411 29.332 5.83832 29.332 8.66675C29.332 11.4952 29.332 12.9094 28.4534 13.7881C27.5747 14.6667 26.1604 14.6667 23.332 14.6667ZM26.0391 7.29297L24.0391 5.29297C23.6486 4.90245 23.0155 4.90245 22.625 5.29297L20.625 7.29297C20.2344 7.68349 20.2344 8.31667 20.625 8.70719C21.0155 9.09771 21.6486 9.09771 22.0391 8.70719L22.332 8.41429V11.3334C22.332 11.8857 22.7798 12.3334 23.332 12.3334C23.8843 12.3334 24.332 11.8857 24.332 11.3334V8.41429L24.625 8.70719C25.0155 9.09771 25.6486 9.09771 26.0391 8.70719C26.4296 8.31667 26.4296 7.68349 26.0391 7.29297Z" fill="#808080"/>
</svg>
