<svg width="24" height="25" viewBox="0 0 24 25" fill="none" xmlns="http://www.w3.org/2000/svg">
<rect x="5" y="10.5" width="14" height="4" fill="#1C282B"/>
<path d="M12.002 2.5C6.49195 2.5 2.00195 6.99 2.00195 12.5C2.00195 18.01 6.49195 22.5 12.002 22.5C17.512 22.5 22.002 18.01 22.002 12.5C22.002 6.99 17.512 2.5 12.002 2.5ZM15.922 13.25H7.92195C7.51195 13.25 7.17195 12.91 7.17195 12.5C7.17195 12.09 7.51195 11.75 7.92195 11.75H15.922C16.332 11.75 16.672 12.09 16.672 12.5C16.672 12.91 16.342 13.25 15.922 13.25Z" fill="#FFA500"/>
</svg>
