<svg width="18" height="18" viewBox="0 0 18 18" fill="none" xmlns="http://www.w3.org/2000/svg">
<path d="M5.48534 2.1206V2.70493C5.48534 2.86366 5.35691 2.9935 5.19818 2.9935H5.19677C5.03805 2.9935 4.9082 2.86366 4.9082 2.70493V2.1206C4.9082 1.96039 5.03805 1.83203 5.19677 1.83203H5.19818C5.35691 1.83203 5.48534 1.96039 5.48534 2.1206Z" fill="#FFD80C"/>
<path d="M5.48534 10.1792V10.7635C5.48534 10.9223 5.35691 11.0521 5.19818 11.0521H5.19677C5.03805 11.0521 4.9082 10.9223 4.9082 10.7635V10.1792C4.9082 10.019 5.03805 9.89063 5.19677 9.89063H5.19818C5.35691 9.89062 5.48534 10.019 5.48534 10.1792Z" fill="#FFD80C"/>
<path d="M0.874264 6.15234H1.45859C1.61732 6.15234 1.74716 6.28078 1.74716 6.43951V6.44091C1.74716 6.59964 1.61732 6.72948 1.45859 6.72948H0.874264C0.714057 6.72948 0.585693 6.59964 0.585693 6.44091V6.43951C0.585693 6.28078 0.714056 6.15234 0.874264 6.15234Z" fill="#FFD80C"/>
<path d="M8.93139 6.15234H9.51572C9.67445 6.15234 9.80429 6.28078 9.80429 6.43951V6.44091C9.80429 6.59964 9.67445 6.72948 9.51572 6.72948H8.93139C8.77119 6.72948 8.64282 6.59964 8.64282 6.44091V6.43951C8.64282 6.28078 8.77119 6.15234 8.93139 6.15234Z" fill="#FFD80C"/>
<path d="M2.34399 3.18273L2.75717 3.59591C2.86941 3.70814 2.87041 3.89077 2.75817 4.00301L2.75717 4.00401C2.64493 4.11625 2.46131 4.11625 2.34907 4.00401L1.93589 3.59083C1.82261 3.47754 1.82365 3.29496 1.93589 3.18273L1.93689 3.18173C2.04912 3.06949 2.23071 3.06944 2.34399 3.18273Z" fill="#FFD80C"/>
<path d="M8.0437 8.87804L8.45688 9.29122C8.56912 9.40346 8.57011 9.58609 8.45787 9.69832L8.45688 9.69932C8.34464 9.81156 8.16102 9.81156 8.04878 9.69932L7.6356 9.28614C7.52231 9.17285 7.52336 8.99028 7.6356 8.87804L7.63659 8.87704C7.74883 8.7648 7.93041 8.76475 8.0437 8.87804Z" fill="#FFD80C"/>
<path d="M1.93834 9.29473L2.35152 8.88155C2.46376 8.76932 2.64639 8.76832 2.75863 8.88056L2.75962 8.88155C2.87186 8.99379 2.87186 9.17742 2.75962 9.28965L2.34644 9.70283C2.23316 9.81612 2.05058 9.81507 1.93834 9.70283L1.93734 9.70184C1.82511 9.5896 1.82506 9.40802 1.93834 9.29473Z" fill="#FFD80C"/>
<path d="M7.63609 3.59552L8.04928 3.18233C8.16151 3.0701 8.34414 3.0691 8.45638 3.18134L8.45738 3.18233C8.56961 3.29457 8.56961 3.4782 8.45738 3.59043L8.04419 4.00362C7.93091 4.1169 7.74833 4.11585 7.63609 4.00362L7.6351 4.00262C7.52286 3.89038 7.52281 3.7088 7.63609 3.59552Z" fill="#FFD80C"/>
<path d="M5.19919 9.46577C6.87033 9.46577 8.22505 8.11105 8.22505 6.43991C8.22505 4.76878 6.87033 3.41406 5.19919 3.41406C3.52806 3.41406 2.17334 4.76878 2.17334 6.43991C2.17334 8.11105 3.52806 9.46577 5.19919 9.46577Z" fill="#FFD80C"/>
<path d="M8.22568 6.44308C8.22568 8.11385 6.87082 9.46871 5.19855 9.46871C4.41798 9.46871 3.70666 9.17295 3.16992 8.68669L7.13343 4.11719C7.80005 4.67122 8.22568 5.50664 8.22568 6.44308Z" fill="#FFBE00"/>
<g opacity="0.28">
<path d="M3.67103 4.97332C3.92126 4.70052 4.03581 4.39837 3.92688 4.29845C3.81795 4.19854 3.52679 4.3387 3.27657 4.61151C3.02634 4.88431 2.91179 5.18646 3.02072 5.28638C3.12965 5.38629 3.42081 5.24613 3.67103 4.97332Z" fill="white"/>
</g>
<path d="M17.4596 13.1114C17.4596 13.9551 17.1183 14.7193 16.5655 15.2711C16.0128 15.8249 15.2496 16.1662 14.4059 16.1662H3.57329C1.88683 16.1662 0.519531 14.7989 0.519531 13.1114C0.519531 12.2687 0.861859 11.5045 1.41361 10.9517C1.83749 10.5289 2.38622 10.2288 2.99938 10.113C2.99637 10.0617 2.99435 10.0093 2.99435 9.95698C2.99435 8.5947 4.09885 7.49022 5.46111 7.49022C5.73094 7.49022 5.99071 7.53353 6.23436 7.61509C6.87975 6.21859 8.29334 5.25 9.93248 5.25C12.1818 5.25 14.0051 7.07337 14.0051 9.32269C14.0051 9.57337 13.982 9.81903 13.9387 10.0577H14.4059C16.0923 10.0577 17.4596 11.425 17.4596 13.1114Z" fill="#E5E8EF"/>
<path d="M17.4638 13.1113C17.4638 13.9529 17.1223 14.7179 16.5691 15.2711C16.0159 15.8244 15.2537 16.1657 14.4093 16.1657H13.3505C14.1949 16.1657 14.9572 15.8244 15.5103 15.2711C16.0636 14.7179 16.405 13.9529 16.405 13.1113C16.405 11.4225 15.0366 10.0568 13.3505 10.0568H12.882C12.927 9.81847 12.9482 9.57239 12.9482 9.32088C12.9482 7.24835 11.4024 5.54118 9.40137 5.28438C9.57604 5.2606 9.75336 5.25 9.93604 5.25C12.1859 5.25 14.0069 7.07103 14.0069 9.32088C14.0069 9.57239 13.9858 9.81847 13.9408 10.0568H14.4093C16.0954 10.0568 17.4638 11.4225 17.4638 13.1113Z" fill="#CDD4DF"/>
<g opacity="0.28">
<path d="M5.72314 9.8614C5.2811 10.3034 4.71194 10.4516 4.45254 10.1949C4.19578 9.93546 4.34403 9.36637 4.78607 8.92433C5.22811 8.48229 5.79726 8.33391 6.05667 8.59073C6.31343 8.85014 6.16517 9.41664 5.72314 9.8614Z" fill="white"/>
</g>
</svg>
