<svg width="20" height="21" viewBox="0 0 20 21" fill="none" xmlns="http://www.w3.org/2000/svg">
<path d="M10.002 0.5C4.49195 0.5 0.00195312 4.99 0.00195312 10.5C0.00195312 16.01 4.49195 20.5 10.002 20.5C15.512 20.5 20.002 16.01 20.002 10.5C20.002 4.99 15.512 0.5 10.002 0.5ZM14.002 11.25H10.752V14.5C10.752 14.91 10.412 15.25 10.002 15.25C9.59195 15.25 9.25195 14.91 9.25195 14.5V11.25H6.00195C5.59195 11.25 5.25195 10.91 5.25195 10.5C5.25195 10.09 5.59195 9.75 6.00195 9.75H9.25195V6.5C9.25195 6.09 9.59195 5.75 10.002 5.75C10.412 5.75 10.752 6.09 10.752 6.5V9.75H14.002C14.412 9.75 14.752 10.09 14.752 10.5C14.752 10.91 14.412 11.25 14.002 11.25Z" fill="#FFA500"/>
</svg>
