<svg width="18" height="18" viewBox="0 0 18 18" fill="none" xmlns="http://www.w3.org/2000/svg">
<g clip-path="url(#clip0_325_544)">
<path d="M9.98438 14.625C9.98438 15.091 9.60666 15.4688 9.14062 15.4688C8.67459 15.4688 8.29688 15.091 8.29688 14.625C8.29688 14.0625 8.85938 13.2188 9.14062 13.2188C9.42188 13.2188 9.98438 14.0625 9.98438 14.625Z" fill="url(#paint0_linear_325_544)"/>
<path d="M7.875 17.1562C7.875 17.6223 7.49728 18 7.03125 18C6.56522 18 6.1875 17.6223 6.1875 17.1562C6.1875 16.5938 6.75 15.75 7.03125 15.75C7.3125 15.75 7.875 16.5938 7.875 17.1562Z" fill="url(#paint1_linear_325_544)"/>
<path d="M14.625 16.3125C14.625 16.7785 14.2473 17.1562 13.7812 17.1562C13.3152 17.1562 12.9375 16.7785 12.9375 16.3125C12.9375 15.75 13.5 14.9062 13.7812 14.9062C14.0625 14.9062 14.625 15.75 14.625 16.3125Z" fill="url(#paint2_linear_325_544)"/>
<path d="M3.79688 12.6562C3.79688 13.1223 3.41916 13.5 2.95312 13.5C2.48709 13.5 2.10938 13.1223 2.10938 12.6562C2.10938 12.0938 2.67188 11.25 2.95312 11.25C3.23438 11.25 3.79688 12.0938 3.79688 12.6562Z" fill="url(#paint3_linear_325_544)"/>
<path d="M6.1875 14.0625C6.1875 14.373 5.9355 14.625 5.625 14.625C5.31422 14.625 5.0625 14.373 5.0625 14.0625C5.0625 13.6876 5.43741 13.2188 5.625 13.2188C5.81231 13.2188 6.1875 13.6876 6.1875 14.0625Z" fill="url(#paint4_linear_325_544)"/>
<path d="M4.5 15.75C4.5 16.0605 4.248 16.3125 3.9375 16.3125C3.62672 16.3125 3.375 16.0605 3.375 15.75C3.375 15.3751 3.74991 14.9062 3.9375 14.9062C4.12481 14.9062 4.5 15.3751 4.5 15.75Z" fill="url(#paint5_linear_325_544)"/>
<path d="M12.6562 14.0625C12.6562 14.373 12.4042 14.625 12.0938 14.625C11.783 14.625 11.5312 14.373 11.5312 14.0625C11.5312 13.6876 11.9062 13.2188 12.0938 13.2188C12.2811 13.2188 12.6562 13.6876 12.6562 14.0625Z" fill="url(#paint6_linear_325_544)"/>
<path d="M11.8125 17.4375C11.8125 17.748 11.5605 18 11.25 18C10.9392 18 10.6875 17.748 10.6875 17.4375C10.6875 17.0626 11.0624 16.5938 11.25 16.5938C11.4373 16.5938 11.8125 17.0626 11.8125 17.4375Z" fill="url(#paint7_linear_325_544)"/>
<path d="M16.0312 14.0625C16.0312 14.373 15.7792 14.625 15.4688 14.625C15.158 14.625 14.9062 14.373 14.9062 14.0625C14.9062 13.6876 15.2812 13.2188 15.4688 13.2188C15.6561 13.2188 16.0312 13.6876 16.0312 14.0625Z" fill="url(#paint8_linear_325_544)"/>
<path d="M15.4688 6.76575C15.4688 6.76041 15.4688 6.75534 15.4688 6.75C15.4688 4.57875 13.7025 2.8125 11.5312 2.8125C11.4778 2.8125 11.423 2.81391 11.3662 2.81672C10.874 1.14638 9.35578 0 7.59375 0C5.84353 0 4.29469 1.17984 3.81291 2.84147C3.66666 2.82234 3.52012 2.8125 3.375 2.8125C1.51397 2.8125 0 4.32647 0 6.1875C0 8.04853 1.51397 9.5625 3.375 9.5625H3.98531C4.25419 11.1831 5.64187 12.375 7.3125 12.375H15.1875C16.7383 12.375 18 11.1133 18 9.5625C18 8.11041 16.8941 6.912 15.4688 6.76575Z" fill="url(#paint9_linear_325_544)"/>
<path d="M15.4688 6.76575C15.4688 6.76041 15.4688 6.75534 15.4688 6.75C15.4688 4.57875 13.7025 2.8125 11.5312 2.8125C9.78103 2.8125 8.23219 3.99234 7.75041 5.65397C7.60416 5.63484 7.45762 5.625 7.3125 5.625C5.45147 5.625 3.9375 7.13897 3.9375 9C3.9375 10.861 5.45147 12.375 7.3125 12.375H15.1875C16.7383 12.375 18 11.1133 18 9.5625C18 8.11041 16.8941 6.912 15.4688 6.76575Z" fill="url(#paint10_linear_325_544)"/>
</g>
<defs>
<linearGradient id="paint0_linear_325_544" x1="8.46338" y1="15.1408" x2="9.81816" y2="13.7857" gradientUnits="userSpaceOnUse">
<stop stop-color="#78B9EB"/>
<stop offset="1" stop-color="#C2DFF6"/>
</linearGradient>
<linearGradient id="paint1_linear_325_544" x1="6.35372" y1="17.6721" x2="7.70878" y2="16.317" gradientUnits="userSpaceOnUse">
<stop stop-color="#78B9EB"/>
<stop offset="1" stop-color="#C2DFF6"/>
</linearGradient>
<linearGradient id="paint2_linear_325_544" x1="13.1037" y1="16.8283" x2="14.4588" y2="15.4733" gradientUnits="userSpaceOnUse">
<stop stop-color="#78B9EB"/>
<stop offset="1" stop-color="#C2DFF6"/>
</linearGradient>
<linearGradient id="paint3_linear_325_544" x1="2.27559" y1="13.1721" x2="3.63066" y2="11.817" gradientUnits="userSpaceOnUse">
<stop stop-color="#78B9EB"/>
<stop offset="1" stop-color="#C2DFF6"/>
</linearGradient>
<linearGradient id="paint4_linear_325_544" x1="5.19188" y1="14.4248" x2="6.05813" y2="13.5582" gradientUnits="userSpaceOnUse">
<stop stop-color="#78B9EB"/>
<stop offset="1" stop-color="#C2DFF6"/>
</linearGradient>
<linearGradient id="paint5_linear_325_544" x1="3.50438" y1="16.1123" x2="4.37063" y2="15.2457" gradientUnits="userSpaceOnUse">
<stop stop-color="#78B9EB"/>
<stop offset="1" stop-color="#C2DFF6"/>
</linearGradient>
<linearGradient id="paint6_linear_325_544" x1="11.6606" y1="14.4248" x2="12.5269" y2="13.5582" gradientUnits="userSpaceOnUse">
<stop stop-color="#78B9EB"/>
<stop offset="1" stop-color="#C2DFF6"/>
</linearGradient>
<linearGradient id="paint7_linear_325_544" x1="10.8169" y1="17.7998" x2="11.6831" y2="16.9332" gradientUnits="userSpaceOnUse">
<stop stop-color="#78B9EB"/>
<stop offset="1" stop-color="#C2DFF6"/>
</linearGradient>
<linearGradient id="paint8_linear_325_544" x1="15.0356" y1="14.4248" x2="15.9019" y2="13.5582" gradientUnits="userSpaceOnUse">
<stop stop-color="#78B9EB"/>
<stop offset="1" stop-color="#C2DFF6"/>
</linearGradient>
<linearGradient id="paint9_linear_325_544" x1="4.58775" y1="12.1711" x2="13.5529" y2="3.20569" gradientUnits="userSpaceOnUse">
<stop stop-color="#1A6FB0"/>
<stop offset="1" stop-color="#5AAAE7"/>
</linearGradient>
<linearGradient id="paint10_linear_325_544" x1="6.83775" y1="13.2961" x2="15.2404" y2="4.89319" gradientUnits="userSpaceOnUse">
<stop stop-color="#78B9EB"/>
<stop offset="1" stop-color="#C2DFF6"/>
</linearGradient>
<clipPath id="clip0_325_544">
<rect width="18" height="18" fill="white"/>
</clipPath>
</defs>
</svg>
