<svg width="110" height="110" viewBox="0 0 110 110" fill="none" xmlns="http://www.w3.org/2000/svg">
<path d="M38.4151 11.7883C39.7641 12.8703 40.384 14.7462 40.7402 16.3747C40.7577 16.454 40.7753 16.5333 40.7934 16.615C40.9499 17.3872 40.9781 18.1007 41.0356 18.9058C43.5879 18.9413 46.1403 18.9767 48.77 19.0132C48.8054 18.6233 48.8409 18.2334 48.8774 17.8316C48.9426 17.5152 49.0109 17.2142 49.0989 16.9051C49.1338 16.7824 49.1338 16.7824 49.1693 16.6572C49.7537 14.7024 50.8235 12.5423 52.6632 11.5138C54.2899 10.7324 56.1849 10.5262 57.9277 11.0707C59.6678 11.759 60.6103 12.7901 61.349 14.4775C61.9147 15.8746 62.1977 17.4011 62.1977 18.9058C64.6082 18.9058 67.0188 18.9058 69.5024 18.9058C69.5378 18.445 69.5733 17.9841 69.6098 17.5093C69.9996 15.4325 71.0306 13.0703 72.7967 11.7939C73.5047 11.3312 74.2623 10.9405 75.0883 10.7418C75.2082 10.7127 75.2082 10.7127 75.3304 10.683C77.1188 10.3879 78.8711 10.763 80.352 11.816C82.168 13.2204 82.5602 15.857 82.8428 17.986C82.8725 18.2209 82.9018 18.4559 82.9301 18.691C83.0331 18.7031 83.0331 18.7031 83.1382 18.7154C83.4561 18.7534 83.7738 18.7927 84.0916 18.832C84.1996 18.8446 84.3075 18.8573 84.4187 18.8704C86.3932 19.118 88.0196 19.7937 89.3754 21.2691C89.5876 21.568 89.7792 21.8671 89.9574 22.1872C90.167 22.5122 90.4173 22.7491 90.6981 23.0147C92.2663 24.5503 92.9688 26.7049 93.0375 28.8823C93.0411 29.2569 93.0412 29.6313 93.0402 30.0059C93.0401 30.1511 93.0401 30.2962 93.0401 30.4413C93.0401 30.8383 93.0393 31.2353 93.0384 31.6323C93.0377 31.9725 93.0373 32.3127 93.037 32.6529C93.0324 36.816 93.006 40.9791 92.9799 45.1422C92.9732 46.2098 92.9668 47.2774 92.9604 48.345C92.9474 50.5274 92.934 52.7098 92.9203 54.8921C92.9863 54.924 93.0522 54.9559 93.1202 54.9888C96.6443 56.8007 99.045 61.4426 100.202 65.0359C101.332 68.7074 101.458 72.5962 100.87 76.3765C100.858 76.4549 100.847 76.5332 100.835 76.614C100.19 80.9582 98.1463 85.2284 95.3911 88.6226C95.3069 88.7274 95.2227 88.8323 95.1359 88.9403C94.901 89.2303 94.6636 89.5179 94.4243 89.8043C94.3592 89.8828 94.2941 89.9613 94.227 90.0422C93.8591 90.4759 93.4703 90.8518 93.0362 91.2188C92.801 91.4261 92.5868 91.6459 92.3698 91.8721C87.7541 96.5354 80.7658 98.8766 74.3364 99.15C74.2239 99.1558 74.1115 99.1616 73.9956 99.1676C68.0263 99.3309 62.2239 96.7917 57.9268 92.7584C56.9463 91.8183 56.1097 90.8024 55.3227 89.6968C55.2736 89.6281 55.2244 89.5595 55.1738 89.4887C53.89 87.677 51.9926 84.7846 51.9926 82.4996C51.8537 82.4992 51.7149 82.4989 51.5718 82.4985C48.2717 82.49 44.9716 82.4804 41.6716 82.4695C41.265 82.4681 40.8584 82.4668 40.4518 82.4655C40.3709 82.4652 40.29 82.4649 40.2066 82.4647C38.8977 82.4604 37.5888 82.4569 36.2799 82.4536C34.9359 82.4503 33.5919 82.4461 32.2479 82.4413C31.4192 82.4383 30.5905 82.4359 29.7619 82.4343C29.1254 82.4331 28.4889 82.4307 27.8524 82.4279C27.5921 82.4269 27.3318 82.4263 27.0714 82.4261C26.7148 82.4257 26.3583 82.424 26.0017 82.4221C25.8997 82.4223 25.7977 82.4225 25.6926 82.4227C24.5889 82.4136 23.5482 82.2326 22.5187 81.8349C22.4319 81.8019 22.345 81.769 22.2555 81.735C21.0802 81.2799 19.9609 80.7717 19.0141 79.9214C18.9259 79.8432 18.8377 79.765 18.7468 79.6844C17.9765 78.9608 17.1196 77.9995 16.9731 76.9136C16.908 76.9031 16.8429 76.8926 16.7759 76.8817C15.6663 76.6837 14.7632 76.2964 13.8578 75.6246C13.7689 75.5586 13.68 75.4927 13.5885 75.4248C12.6016 74.5772 11.8587 73.2098 11.7333 71.911C11.6687 70.8858 11.8318 69.8836 11.9712 68.8704C12.0006 68.6501 12.0298 68.4298 12.0589 68.2095C12.5 64.9039 12.9764 61.6017 13.5087 58.3095C13.7068 57.0833 13.8488 55.857 13.9771 54.6222C14.1168 53.2917 14.3109 51.9754 14.5292 50.6557C14.8468 48.7312 15.1176 46.8027 15.3685 44.8683C15.3865 44.729 15.4046 44.5897 15.4233 44.4462C15.6095 43.0075 15.7921 41.5684 15.974 40.1292C16.016 39.7969 16.058 39.4645 16.1001 39.1322C16.127 38.9197 16.1538 38.7073 16.1807 38.4948C16.3382 37.249 16.5076 36.0071 16.708 34.7674C16.8758 33.7109 17.0042 32.65 17.1342 31.5883C17.3415 29.8988 17.5648 28.214 17.8325 26.5328C17.846 26.4443 17.8595 26.3558 17.8734 26.2646C18.0195 25.3165 18.2304 24.4803 18.6918 23.6324C18.7485 23.5252 18.8051 23.418 18.8635 23.3076C20.0246 21.2074 21.8584 20.0721 24.0965 19.3556C25.2231 19.0511 26.34 18.9611 27.5004 18.9058C27.496 18.8011 27.4916 18.6964 27.487 18.5886C27.488 18.1095 27.5915 17.6748 27.7153 17.2139C27.7507 17.0817 27.7507 17.0817 27.7869 16.9468C28.4055 14.7438 29.4155 12.486 31.4943 11.3162C33.8932 10.1699 36.2045 10.3102 38.4151 11.7883Z" fill="#FFA500"/>
<path d="M86.9044 35.4456C86.8099 36.5835 86.6749 37.7164 86.5431 38.8504C86.5178 39.069 86.4925 39.2876 86.4672 39.5063C86.4141 39.9648 86.3609 40.4233 86.3076 40.8818C86.2406 41.4582 86.1739 42.0346 86.1072 42.611C85.9559 43.919 85.8036 45.2269 85.6502 46.5346C85.6273 46.7304 85.6043 46.9262 85.5814 47.1219C85.5203 47.6438 85.4589 48.1657 85.3966 48.6875C85.3784 48.8406 85.3603 48.9937 85.3424 49.1468C85.3182 49.3531 85.2934 49.5592 85.2686 49.7654C85.2551 49.8794 85.2415 49.9934 85.2276 50.1108C85.1856 50.3773 85.1856 50.3773 85.0782 50.5921C84.176 50.4229 83.2911 50.2017 82.4032 49.9702C81.6525 49.7785 80.9028 49.6336 80.1368 49.5179C80.1746 48.5461 80.2791 47.593 80.4192 46.6309C80.4358 46.517 80.4524 46.4031 80.4694 46.2857C80.539 45.8114 80.6094 45.3373 80.6808 44.8633C81.179 42.4946 81.179 42.4946 80.6941 40.2267C80.266 39.6832 79.728 39.4541 79.0626 39.3128C78.4379 39.2667 77.8151 39.27 77.189 39.2738C77.007 39.2738 76.825 39.2738 76.643 39.2736C76.2629 39.2736 75.8829 39.2747 75.5029 39.2767C75.0176 39.2791 74.5323 39.2792 74.047 39.2785C73.6716 39.2781 73.2963 39.2788 72.9209 39.2799C72.742 39.2803 72.5631 39.2804 72.3843 39.2802C72.1337 39.2802 71.8832 39.2816 71.6326 39.2833C71.5599 39.283 71.4871 39.2828 71.4122 39.2825C70.6069 39.2913 69.9273 39.4482 69.2872 39.9573C68.7716 40.5302 68.6116 40.9772 68.555 41.7386C68.5484 41.8173 68.5418 41.896 68.535 41.977C68.5141 42.228 68.4944 42.4791 68.4748 42.7302C68.4546 42.9801 68.4342 43.23 68.4135 43.4799C68.4007 43.635 68.3883 43.7902 68.3762 43.9455C68.3389 44.4098 68.2801 44.8676 68.213 45.3284C68.1734 45.733 68.1491 46.1379 68.1257 46.5436C68.1175 46.6491 68.1092 46.7545 68.1007 46.8632C68.0593 47.6177 68.1696 48.2064 68.5352 48.8734C68.7658 49.1402 68.7658 49.1402 69.0723 49.303C69.1318 49.3389 69.1912 49.3748 69.2524 49.4117C69.8709 49.7562 70.5336 49.9038 71.2208 50.055C70.8781 50.2504 70.5193 50.3572 70.1424 50.4686C66.4275 51.5715 62.9245 53.5417 60.0758 56.1713C59.8633 56.3661 59.6459 56.5508 59.4245 56.7353C55.5455 60.1392 53.0191 65.2504 51.8043 70.1966C51.7842 70.2766 51.7642 70.3565 51.7436 70.4389C51.5857 71.1172 51.4904 71.803 51.3938 72.4921C51.379 72.5968 51.3642 72.7016 51.3489 72.8095C51.3126 73.0664 51.2764 73.3234 51.2403 73.5804C46.9031 73.5902 42.566 73.5978 38.2288 73.6023C37.7168 73.6029 37.2048 73.6034 36.6927 73.604C36.5908 73.6041 36.4889 73.6042 36.3838 73.6043C34.7332 73.6062 33.0826 73.6096 31.4321 73.6135C29.7384 73.6176 28.0448 73.6199 26.3512 73.6208C25.3061 73.6214 24.2611 73.6233 23.216 73.6268C22.4994 73.629 21.7828 73.6297 21.0662 73.6292C20.6527 73.6289 20.2392 73.6293 19.8258 73.6316C19.3773 73.6341 18.9289 73.6332 18.4804 73.6321C18.3499 73.6333 18.2195 73.6346 18.0852 73.6359C17.2301 73.6298 16.6538 73.5155 15.9837 72.951C15.2117 72.0418 15.0843 71.3239 15.1466 70.1429C15.2137 69.4662 15.3206 68.7943 15.4218 68.122C15.4509 67.9243 15.4798 67.7266 15.5086 67.5289C15.6486 66.5734 15.7928 65.6185 15.9374 64.6637C16.0186 64.1268 16.0996 63.5899 16.1805 63.053C16.1966 62.9462 16.2127 62.8394 16.2293 62.7294C16.4299 61.3959 16.6144 60.0627 16.7646 58.7226C16.915 57.3827 17.0928 56.049 17.2871 54.7148C17.4949 53.2864 17.6956 51.8572 17.8913 50.4272C17.9035 50.3382 17.9156 50.2493 17.9282 50.1576C17.9913 49.6962 18.0544 49.2349 18.1174 48.7735C18.5271 45.7764 18.943 42.7807 19.3844 39.7882C19.4007 39.6778 19.417 39.5674 19.4337 39.4537C19.4626 39.2576 19.4917 39.0615 19.5209 38.8655C19.6279 38.1419 19.7269 37.4173 19.8255 36.6925C19.8404 36.5829 19.8553 36.4732 19.8707 36.3602C19.9074 36.0912 19.944 35.8221 19.9806 35.553C20.0475 35.5531 20.1145 35.5531 20.1835 35.5532C25.5434 35.5564 30.9032 35.5585 36.2631 35.5597C36.5762 35.5598 36.8894 35.5598 37.2025 35.5599C47.0243 35.5621 56.8459 35.5598 73.0805 35.4993C73.1945 35.4989 73.1945 35.4989 73.3108 35.4984C76.0358 35.4869 78.7608 35.4751 81.4858 35.462C81.6031 35.4614 81.7205 35.4609 81.8414 35.4603C82.3808 35.4577 82.9202 35.4551 83.4596 35.4524C84.6079 35.4468 85.7561 35.4444 86.9044 35.4456Z" fill="#FFEECF"/>
<path d="M76.9279 52.6097C77.0095 52.6097 77.0911 52.6096 77.1752 52.6095C79.2381 52.6124 81.1707 52.8866 83.1449 53.496C83.2161 53.5179 83.2872 53.5399 83.3605 53.5625C86.2177 54.475 88.8112 56.1899 90.9867 58.2225C91.0807 58.3095 91.1747 58.3965 91.2716 58.4861C93.699 60.8125 95.2598 63.9249 96.1429 67.1385C96.177 67.2611 96.2111 67.3836 96.2462 67.5099C97.4306 72.3589 96.5627 78.0497 94.4242 82.4999C94.3759 82.6037 94.3759 82.6037 94.3266 82.7097C93.279 84.9611 91.8409 86.9401 90.1273 88.7303C90.0714 88.7897 90.0155 88.8492 89.9579 88.9104C88.988 89.9377 87.9453 90.8088 86.7972 91.6307C86.7307 91.6789 86.6641 91.727 86.5956 91.7767C84.0364 93.6124 81.1646 94.7441 78.0961 95.3905C78.006 95.4098 77.9159 95.429 77.8231 95.4489C75.3565 95.951 72.4905 95.9587 70.0394 95.3905C69.9525 95.3715 69.8656 95.3525 69.7761 95.3329C64.9753 94.2744 60.5868 91.4577 57.9129 87.2822C55.8709 84.0268 54.7706 80.4378 54.6831 76.5874C54.6784 76.3909 54.67 76.1946 54.6613 75.9983C54.5023 70.1014 57.0569 64.1415 61.0678 59.8975C61.9331 58.9896 62.8087 58.1247 63.809 57.3632C63.9199 57.2785 64.0308 57.1939 64.1451 57.1068C67.157 54.8607 70.7277 53.3142 74.4437 52.744C74.5605 52.7253 74.6774 52.7066 74.7977 52.6873C75.5046 52.5973 76.2163 52.6103 76.9279 52.6097Z" fill="#FFEECF"/>
<path d="M73.7971 22.1148C73.9356 22.1144 74.0741 22.1141 74.2169 22.1137C74.3704 22.1139 74.524 22.1142 74.6775 22.1144C74.8358 22.1143 74.9942 22.1141 75.1525 22.1139C75.5762 22.1136 75.9999 22.114 76.4235 22.1148C76.6847 22.1152 76.946 22.1155 77.2072 22.1158C81.1724 22.121 81.1724 22.121 82.7315 22.1571C82.9489 22.162 83.1663 22.1658 83.3837 22.1695C84.7945 22.2118 85.8004 22.5606 86.8006 23.5801C87.68 24.6937 87.7886 25.8342 87.7905 27.1909C87.7907 27.2643 87.791 27.3377 87.7912 27.4133C87.7936 30.7402 87.7936 30.7402 87.334 32.1189C84.4157 32.1396 81.4974 32.1568 78.5791 32.1726C78.4025 32.1736 78.4025 32.1736 78.2224 32.1745C67.4549 32.2327 56.6874 32.2347 41.3751 32.2331C40.9938 32.233 40.6124 32.233 40.231 32.2329C33.6599 32.2317 27.0887 32.2295 20.5176 32.2263C20.5847 31.5998 20.6534 30.9734 20.7235 30.3472C20.747 30.135 20.7701 29.9227 20.7928 29.7103C21.2972 24.999 21.2972 24.999 22.7734 23.74C24.3285 22.6025 25.8375 22.4182 27.7148 22.4509C27.7306 22.5395 27.7464 22.6282 27.7627 22.7195C28.0526 24.2123 28.5625 25.5395 29.3262 26.8552C29.3589 26.9322 29.3915 27.0092 29.4252 27.0885C29.5724 27.3382 29.7082 27.3847 29.9707 27.4997C30.1125 27.6016 30.2534 27.7047 30.3937 27.8086C31.5073 28.5504 32.7516 28.6675 34.0527 28.6814C34.1497 28.6828 34.2466 28.6842 34.3465 28.6856C34.9933 28.6566 35.4264 28.3841 35.8789 27.9294C36.1988 27.4595 36.2692 27.0964 36.2012 26.533C36.0186 25.9538 35.7954 25.6235 35.2444 25.328C34.7442 25.1409 34.2001 25.1933 33.6736 25.2009C32.9882 25.192 32.5399 25.0445 32.0117 24.5994C31.7981 24.3535 31.7981 24.3535 31.6559 24.1025C31.6076 24.0214 31.5592 23.9402 31.5094 23.8566C31.3748 23.5428 31.2851 23.243 31.1972 22.9136C31.1542 22.7536 31.1542 22.7536 31.1104 22.5903C31.0888 22.5089 31.0672 22.4274 31.0449 22.3435C33.9208 22.2618 36.7945 22.2185 39.6716 22.2221C40.1659 22.2227 40.6602 22.2223 41.1545 22.2217C43.7304 22.219 46.3025 22.2582 48.877 22.3435C48.8978 22.4246 48.9187 22.5056 48.9401 22.5891C49.6598 25.5589 49.6598 25.5589 51.6632 27.7414C52.9871 28.4811 54.7377 28.9084 56.2521 28.4963C56.6958 28.2919 56.9942 28.0153 57.2559 27.6072C57.4384 27.0595 57.432 26.5988 57.2223 26.0697C56.9298 25.6039 56.71 25.4108 56.1816 25.2439C55.7607 25.2084 55.3377 25.2097 54.9154 25.2114C54.2463 25.1948 53.7965 25.0329 53.2812 24.5994C53.0677 24.3421 53.0677 24.3421 52.9254 24.0824C52.8492 23.9432 52.8492 23.9432 52.7714 23.8012C52.3145 22.8645 52.3145 22.8645 52.3145 22.3435C54.2841 22.2439 56.2506 22.2212 58.2224 22.2252C58.6246 22.2259 59.0269 22.2259 59.4292 22.226C60.1862 22.2264 60.9432 22.2273 61.7002 22.2283C62.564 22.2296 63.4278 22.2301 64.2917 22.2307C66.0642 22.2318 67.8368 22.2337 69.6094 22.2361C69.6608 22.3897 69.7122 22.5434 69.7636 22.6971C69.7922 22.7827 69.8209 22.8682 69.8504 22.9564C69.9522 23.2653 70.0465 23.5761 70.1398 23.8877C70.2133 24.125 70.2872 24.3622 70.3613 24.5994C70.3932 24.7043 70.425 24.8093 70.4578 24.9174C70.8661 26.1632 71.766 27.2346 72.9327 27.8556C73.0771 27.9186 73.2226 27.9791 73.3691 28.0369C73.4407 28.0688 73.5123 28.1008 73.5861 28.1338C74.5903 28.5154 75.926 28.5444 76.9581 28.2572C77.3443 28.0769 77.6042 27.8913 77.8876 27.5736C78.0896 26.9946 78.1519 26.603 77.9681 26.0227C77.7204 25.5786 77.5355 25.3223 77.0597 25.1277C76.6537 25.0166 76.2706 24.9984 75.8533 24.9888C75.1721 24.9586 74.6882 24.8845 74.1211 24.4919C73.7877 24.1214 73.5876 23.765 73.4027 23.3036C73.3356 23.1389 73.3356 23.1389 73.2672 22.9708C73.1762 22.725 73.0916 22.4942 73.0469 22.2361C73.2407 22.0423 73.536 22.1149 73.7971 22.1148Z" fill="#FFEECF"/>
<path d="M76.9279 52.6097C77.0095 52.6097 77.0911 52.6096 77.1752 52.6095C79.2381 52.6124 81.1707 52.8866 83.1449 53.496C83.2161 53.5179 83.2872 53.5399 83.3605 53.5625C86.2177 54.475 88.8112 56.1899 90.9867 58.2225C91.0807 58.3095 91.1747 58.3965 91.2716 58.4861C93.699 60.8125 95.2598 63.9249 96.1429 67.1385C96.177 67.2611 96.2111 67.3836 96.2462 67.5099C97.4306 72.3589 96.5627 78.0497 94.4242 82.4999C94.3759 82.6037 94.3759 82.6037 94.3266 82.7097C93.279 84.9611 91.8409 86.9401 90.1273 88.7303C90.0714 88.7897 90.0155 88.8492 89.9579 88.9104C88.988 89.9377 87.9453 90.8088 86.7972 91.6307C86.7307 91.6789 86.6641 91.727 86.5956 91.7767C84.0364 93.6124 81.1646 94.7441 78.0961 95.3905C78.006 95.4098 77.9159 95.429 77.8231 95.4489C75.3565 95.951 72.4905 95.9587 70.0394 95.3905C69.9525 95.3715 69.8656 95.3525 69.7761 95.3329C64.9753 94.2744 60.5868 91.4577 57.9129 87.2822C55.8709 84.0268 54.7706 80.4378 54.6831 76.5874C54.6784 76.3909 54.67 76.1946 54.6613 75.9983C54.5023 70.1014 57.0569 64.1415 61.0678 59.8975C61.9331 58.9896 62.8087 58.1247 63.809 57.3632C63.9199 57.2785 64.0308 57.1939 64.1451 57.1068C67.157 54.8607 70.7277 53.3142 74.4437 52.744C74.5605 52.7253 74.6774 52.7066 74.7977 52.6873C75.5046 52.5973 76.2163 52.6103 76.9279 52.6097ZM64.4535 60.1561C64.3645 60.2333 64.2754 60.3104 64.1837 60.3899C60.7594 63.4163 58.5978 67.1969 57.5785 71.6503C57.5592 71.7337 57.54 71.8171 57.5201 71.903C56.5494 76.3497 57.3543 81.4691 59.806 85.3032C62.2564 88.9937 66.0412 91.7852 70.3999 92.7255C74.742 93.5871 78.9625 92.7406 82.8226 90.6639C82.93 90.607 82.93 90.607 83.0395 90.549C84.1014 89.9836 85.0878 89.3509 86.0453 88.6229C86.1417 88.5508 86.238 88.4786 86.3373 88.4043C87.8163 87.2483 89.149 85.8562 90.2347 84.326C90.282 84.2603 90.3292 84.1946 90.3779 84.1269C92.1878 81.5755 93.3744 78.6196 93.7797 75.5175C93.7896 75.4455 93.7996 75.3735 93.8099 75.2993C93.9155 74.427 93.9109 73.55 93.9129 72.6726C93.9139 72.3987 93.9173 72.1249 93.9207 71.8511C93.9507 67.2237 91.8276 63.1679 88.6368 59.9211C85.4312 56.7364 81.0794 55.1679 76.591 55.1749C72.1881 55.2604 67.7483 57.2965 64.4535 60.1561Z" fill="#FFEECF"/>
<path d="M27.1634 39.1924C27.2867 39.1918 27.2867 39.1918 27.4125 39.1913C27.6828 39.1902 27.9531 39.19 28.2235 39.1899C28.4127 39.1896 28.6018 39.1892 28.791 39.1888C29.1872 39.1882 29.5835 39.188 29.9797 39.1881C30.4851 39.1881 30.9905 39.1866 31.4959 39.1847C31.8866 39.1835 32.2774 39.1833 32.6682 39.1834C32.8544 39.1833 33.0406 39.1828 33.2268 39.182C35.8779 39.1712 35.8779 39.1712 36.6309 39.8525C36.9723 40.2354 37.0603 40.5902 37.0617 41.1017C37.0531 41.2513 37.0431 41.4008 37.032 41.5503C37.0266 41.6307 37.0212 41.7112 37.0156 41.794C36.9555 42.6181 36.8434 43.4325 36.719 44.2492C36.6958 44.4052 36.6727 44.5611 36.6496 44.717C36.6015 45.0401 36.5529 45.363 36.5038 45.6859C36.4415 46.0963 36.3806 46.507 36.32 46.9177C36.2726 47.2383 36.2246 47.5588 36.1763 47.8793C36.1535 48.0306 36.131 48.1819 36.1087 48.3333C35.6821 51.2171 35.6821 51.2171 34.7964 51.9647C34.0338 52.5029 33.3072 52.668 32.3875 52.6669C32.2994 52.6676 32.2112 52.6683 32.1204 52.6691C31.8312 52.6711 31.542 52.6715 31.2527 52.6718C31.0506 52.6725 30.8485 52.6732 30.6464 52.6739C30.2237 52.6752 29.8011 52.6756 29.3784 52.6755C28.8374 52.6755 28.2965 52.6784 27.7555 52.6821C27.3385 52.6845 26.9215 52.6849 26.5045 52.6848C26.305 52.6851 26.1056 52.686 25.9061 52.6877C25.6272 52.6898 25.3484 52.6892 25.0694 52.6879C24.9875 52.6891 24.9056 52.6903 24.8213 52.6915C24.1818 52.684 23.8091 52.4752 23.3526 52.0419C22.7189 51.2585 22.7155 50.6129 22.8008 49.6387C22.8394 49.2974 22.8822 48.9568 22.9267 48.6162C22.9426 48.49 22.9585 48.3639 22.9749 48.2339C23.0258 47.8324 23.0775 47.431 23.1293 47.0296C23.1629 46.7656 23.1964 46.5016 23.2298 46.2376C23.2956 45.7186 23.3625 45.1997 23.43 44.6809C23.4927 44.197 23.5517 43.7129 23.607 43.228C23.6201 43.1172 23.6333 43.0063 23.6468 42.8921C23.6709 42.6879 23.6939 42.4836 23.7155 42.2792C23.8196 41.4169 24.0578 40.4667 24.7071 39.8525C25.511 39.313 26.2011 39.1917 27.1634 39.1924Z" fill="#FFA500"/>
<path d="M42.4549 39.1809C42.5803 39.1798 42.5803 39.1798 42.7082 39.1787C42.9819 39.1767 43.2556 39.1762 43.5293 39.176C43.7211 39.1753 43.9129 39.1746 44.1047 39.1738C44.5056 39.1726 44.9065 39.1722 45.3074 39.1723C45.8195 39.1723 46.3317 39.1694 46.8438 39.1657C47.2396 39.1633 47.6353 39.1629 48.031 39.163C48.2198 39.1627 48.4086 39.1618 48.5974 39.1601C48.8618 39.158 49.1262 39.1586 49.3907 39.1599C49.4676 39.1587 49.5445 39.1575 49.6238 39.1562C50.2031 39.1634 50.6462 39.3269 51.1327 39.6418C51.6979 40.2218 51.819 40.7824 51.817 41.5728C51.7906 42.6977 51.5777 43.8127 51.4087 44.9227C51.3063 45.6141 51.2167 46.3072 51.126 47.0002C51.09 47.2692 51.0539 47.5381 51.0178 47.8071C50.9553 48.2726 50.8954 48.7383 50.8382 49.2044C50.6952 50.3237 50.5531 51.2164 49.7161 52.0356C48.7179 52.7825 47.4876 52.6875 46.3013 52.6826C46.1146 52.6829 45.9279 52.6832 45.7413 52.6836C45.3518 52.684 44.9623 52.6834 44.5728 52.6818C44.0753 52.68 43.5779 52.6811 43.0804 52.683C42.6955 52.6842 42.3107 52.6838 41.9258 52.683C41.7424 52.6827 41.5591 52.683 41.3757 52.6838C41.1189 52.6846 40.8623 52.6833 40.6056 52.6815C40.4937 52.6825 40.4937 52.6825 40.3796 52.6835C39.7355 52.6753 39.1442 52.5327 38.642 52.1132C38.5537 52.005 38.5537 52.005 38.4637 51.8946C38.3725 51.7868 38.3725 51.7868 38.2795 51.6768C37.3212 50.2297 38.3392 47.0594 38.6125 45.4818C38.7153 44.8831 38.8072 44.2845 38.8871 43.6823C38.905 43.5484 38.923 43.4145 38.9414 43.2766C38.9756 43.0181 39.0085 42.7595 39.0402 42.5008C39.1898 41.3736 39.4418 40.3549 40.3637 39.6216C41.0319 39.249 41.701 39.1799 42.4549 39.1809Z" fill="#FFA500"/>
<path d="M25.9478 55.041C26.1516 55.0409 26.3553 55.0406 26.5591 55.0402C26.9845 55.0399 27.4098 55.0414 27.8352 55.0444C28.3792 55.0481 28.923 55.0474 29.467 55.0454C29.8872 55.0443 30.3073 55.0452 30.7275 55.0468C30.928 55.0474 31.1286 55.0473 31.3291 55.0467C31.6096 55.0461 31.8899 55.0483 32.1703 55.0512C32.2523 55.0505 32.3343 55.0498 32.4188 55.0491C33.076 55.0607 33.5245 55.2571 34.022 55.7023C34.6713 56.5305 34.6636 57.2531 34.5496 58.2665C34.4923 58.6769 34.4289 59.0861 34.3632 59.4952C34.3395 59.6467 34.316 59.7982 34.2925 59.9497C34.2308 60.3459 34.1681 60.742 34.1052 61.138C34.0419 61.5375 33.9795 61.9372 33.9171 62.3368C33.8045 63.0574 33.691 63.7778 33.5767 64.498C33.5361 64.7579 33.4965 65.018 33.4579 65.2782C33.4395 65.402 33.4211 65.5258 33.4022 65.6533C33.3783 65.8174 33.3783 65.8174 33.354 65.9847C33.2238 66.719 32.9698 67.3613 32.3574 67.8212C31.6403 68.2975 30.9473 68.4611 30.0875 68.46C30.006 68.4608 29.9245 68.4615 29.8405 68.4622C29.5732 68.4643 29.306 68.4647 29.0387 68.4649C28.8515 68.4656 28.6644 68.4663 28.4773 68.4671C28.0858 68.4684 27.6944 68.4688 27.303 68.4686C26.803 68.4686 26.303 68.4716 25.803 68.4753C25.4168 68.4776 25.0305 68.4781 24.6443 68.478C24.46 68.4782 24.2757 68.4792 24.0915 68.4808C22.1019 68.4971 22.1019 68.4971 21.2904 67.7037C20.5707 66.6344 20.7034 65.6185 20.8591 64.3883C20.8722 64.2809 20.8854 64.1735 20.8989 64.0628C20.9415 63.7165 20.985 63.3703 21.0286 63.0242C21.0583 62.786 21.088 62.5479 21.1177 62.3098C21.2031 61.628 21.2901 60.9463 21.3777 60.2648C21.3893 60.1742 21.4009 60.0836 21.4129 59.9903C21.4773 59.4884 21.544 58.9869 21.6127 58.4856C21.628 58.3699 21.6432 58.2541 21.659 58.1349C21.8119 57.0588 22.0777 56.1748 22.9714 55.4958C23.9023 54.9466 24.9022 55.0327 25.9478 55.041Z" fill="#FFA500"/>
<path d="M39.4293 55.0502C39.5237 55.0494 39.6182 55.0487 39.7154 55.0479C40.0257 55.046 40.3358 55.0473 40.646 55.0487C40.8625 55.0484 41.0791 55.048 41.2956 55.0475C41.7486 55.0468 42.2016 55.0478 42.6547 55.0498C43.2347 55.0522 43.8146 55.0508 44.3946 55.0482C44.8415 55.0467 45.2883 55.0472 45.7352 55.0483C45.949 55.0486 46.1629 55.0482 46.3767 55.0472C46.6757 55.0461 46.9746 55.0478 47.2736 55.0502C47.4055 55.0489 47.4055 55.0489 47.54 55.0475C48.1062 55.0559 48.4253 55.1642 48.8768 55.5355C49.0534 55.7503 49.0534 55.7503 49.1789 55.9652C49.2217 56.0361 49.2645 56.107 49.3085 56.18C49.8955 57.3774 49.4033 59.0712 49.2326 60.3292C49.203 60.5498 49.1734 60.7704 49.1439 60.991C49.0699 61.5406 48.9946 62.09 48.9189 62.6394C48.8794 62.9285 48.8406 63.2177 48.8022 63.507C48.7476 63.9178 48.6911 64.3282 48.6328 64.7385C48.6122 64.8851 48.5923 65.0318 48.573 65.1786C48.4212 66.3239 48.1784 67.3251 47.2591 68.087C46.7137 68.4119 46.169 68.4581 45.5478 68.4573C45.4224 68.4584 45.4224 68.4584 45.2945 68.4595C45.0196 68.4615 44.7448 68.462 44.4699 68.4622C44.2778 68.4629 44.0857 68.4636 43.8936 68.4643C43.4915 68.4656 43.0893 68.466 42.6871 68.4659C42.1732 68.4659 41.6594 68.4688 41.1455 68.4725C40.7489 68.4749 40.3523 68.4753 39.9556 68.4752C39.7662 68.4755 39.5768 68.4764 39.3875 68.4781C39.1219 68.4802 38.8565 68.4796 38.591 68.4783C38.5137 68.4795 38.4364 68.4807 38.3568 68.4819C37.6885 68.4737 37.1475 68.2456 36.6319 67.8202C35.8653 66.8885 35.8016 66.0407 35.9103 64.86C35.9547 64.4828 36.0041 64.1065 36.0554 63.7302C36.0737 63.5915 36.092 63.4528 36.1109 63.3099C36.1495 63.0175 36.1886 62.725 36.2282 62.4327C36.2779 62.0648 36.3269 61.6968 36.3755 61.3288C36.477 60.5608 36.5808 59.793 36.6866 59.0255C36.7196 58.7856 36.7522 58.5455 36.7845 58.3055C36.8249 58.0051 36.8666 57.705 36.9089 57.4049C36.92 57.3202 36.9312 57.2355 36.9427 57.1482C37.0352 56.5096 37.2109 55.9682 37.7049 55.5355C38.2998 55.1318 38.718 55.0431 39.4293 55.0502Z" fill="#FFA500"/>
<path d="M56.7308 39.177C56.8582 39.1762 56.8582 39.1762 56.9883 39.1754C57.2677 39.1739 57.547 39.174 57.8264 39.1742C58.0214 39.1738 58.2165 39.1734 58.4115 39.1728C58.8196 39.172 59.2278 39.1721 59.6359 39.1726C60.1582 39.1733 60.6805 39.1714 61.2028 39.1689C61.6053 39.1674 62.0079 39.1673 62.4104 39.1676C62.603 39.1675 62.7955 39.167 62.9881 39.1659C63.2575 39.1646 63.5269 39.1653 63.7963 39.1666C63.8753 39.1657 63.9544 39.1649 64.0358 39.1641C64.6811 39.1706 65.0932 39.3566 65.5943 39.7504C66.8182 41.2641 66.241 43.6643 66.0777 45.4639C66.0588 45.6797 66.0399 45.8955 66.0211 46.1113C65.9838 46.5373 65.9453 46.9631 65.9058 47.3889C65.8673 47.8067 65.8332 48.2246 65.8024 48.6431C65.7943 48.7439 65.7863 48.8448 65.778 48.9487C65.763 49.1369 65.7493 49.3253 65.7372 49.5138C65.6674 50.3498 65.3877 51.179 64.7753 51.7749C64.0423 52.244 63.474 52.4355 62.6019 52.4367C62.5118 52.4373 62.4216 52.4378 62.3287 52.4384C62.0301 52.4399 61.7316 52.4407 61.433 52.4413C61.2255 52.4419 61.018 52.4425 60.8104 52.4431C60.3751 52.4442 59.9397 52.4449 59.5044 52.4452C58.947 52.4458 58.3897 52.4484 57.8323 52.4515C57.4035 52.4535 56.9747 52.454 56.5459 52.4542C56.3405 52.4545 56.135 52.4554 55.9296 52.4568C55.6418 52.4586 55.3542 52.4584 55.0665 52.4577C54.9819 52.4587 54.8973 52.4597 54.8102 52.4607C54.2054 52.4561 53.7545 52.3357 53.2958 51.9125C53.2444 51.8494 53.1931 51.7863 53.1401 51.7212C53.0874 51.658 53.0346 51.5949 52.9803 51.5298C51.8188 49.8653 53.2018 45.625 53.5095 43.6775C53.5751 43.2606 53.6367 42.8434 53.6944 42.4254C53.7077 42.3322 53.721 42.2389 53.7347 42.1428C53.7578 41.9799 53.7799 41.8168 53.8006 41.6535C53.9093 40.9107 54.1892 40.2459 54.7716 39.7571C54.84 39.6975 54.9084 39.638 54.9789 39.5766C55.5292 39.2143 56.0884 39.1749 56.7308 39.177Z" fill="#FFA500"/>
<path d="M88.4085 63.2727C88.8917 63.5162 89.2883 63.8324 89.4827 64.347C89.554 64.8778 89.5671 65.2672 89.3052 65.7451C89.0338 66.0901 88.7612 66.3221 88.4085 66.5827C88.3472 66.6285 88.2858 66.6743 88.2226 66.7216C88.0959 66.8161 87.9689 66.9102 87.8416 67.0038C87.5636 67.2083 87.2879 67.416 87.012 67.6233C86.9062 67.7025 86.8004 67.7817 86.6914 67.8633C85.818 68.5196 84.9576 69.188 84.1116 69.8792C83.3704 70.4847 82.6178 71.0724 81.8558 71.6516C81.5445 71.8887 81.2335 72.1259 80.9225 72.3633C80.8446 72.4228 80.7667 72.4822 80.6864 72.5435C80.1748 72.9348 79.6685 73.3315 79.1681 73.7371C78.5529 74.2298 78.5529 74.2298 78.3108 74.2298C78.3003 74.3128 78.2898 74.3959 78.2789 74.4815C78.1168 75.6109 77.8968 76.26 76.9798 76.9644C76.3003 77.3662 75.6729 77.5129 74.8868 77.5061C74.802 77.5054 74.7173 77.5047 74.63 77.504C73.6877 77.4745 73.058 77.1879 72.4094 76.4991C72.0335 76.0215 71.7362 75.6178 71.7797 74.9945C71.8132 74.3328 71.7613 73.8931 71.3439 73.3775C70.9316 72.9219 70.4831 72.5053 70.0326 72.088C69.8797 71.9412 69.727 71.7939 69.5746 71.6464C68.9463 71.0416 68.3072 70.4527 67.647 69.8829C67.4091 69.6718 67.1947 69.4463 66.9845 69.2078C66.8784 69.089 66.8784 69.089 66.7701 68.9678C66.3854 68.4728 66.4202 67.8449 66.4944 67.2473C66.6714 66.8391 66.9374 66.5788 67.2665 66.2873C67.7808 66.093 68.3222 66.0537 68.8439 66.248C69.4033 66.5042 69.8003 66.8443 70.2206 67.2876C70.2789 67.3469 70.3371 67.4062 70.3971 67.4672C70.6726 67.7504 70.9355 68.0392 71.1857 68.3451C71.3883 68.587 71.5762 68.7811 71.8185 68.9795C72.2237 69.3251 72.6033 69.6913 72.98 70.0672C73.0645 70.1509 73.0645 70.1509 73.1506 70.2363C73.3967 70.4833 73.605 70.7159 73.7991 71.0071C74.0931 71.0255 74.3657 71.0272 74.6585 71.0138C75.1969 70.9911 75.639 71.0057 76.1595 71.1565C76.4865 71.2278 76.6456 71.2445 76.9567 71.1143C77.2239 70.9383 77.4675 70.7486 77.7133 70.5439C77.8029 70.4735 77.8925 70.4031 77.9849 70.3306C78.2395 70.1296 78.4904 69.9247 78.7405 69.718C78.8445 69.6337 78.9485 69.5494 79.0557 69.4625C79.2334 69.3172 79.4103 69.1708 79.5865 69.0236C80.3424 68.4016 81.1353 67.8235 81.9152 67.2322C82.2569 66.9725 82.597 66.7108 82.9367 66.4484C83.4568 66.0475 83.9809 65.6526 84.5073 65.26C84.7815 65.0545 85.053 64.8456 85.3239 64.6356C85.4043 64.5735 85.4847 64.5114 85.5676 64.4474C85.7253 64.3254 85.8828 64.203 86.0399 64.0802C87.4604 62.9829 87.4604 62.9829 88.4085 63.2727Z" fill="#FFA500"/>
<path d="M20.9473 76.9141C30.9085 76.9141 40.8697 76.9141 51.1328 76.9141C51.3745 78.4851 51.3745 78.4851 51.3477 79.2773C46.9456 79.286 42.5435 79.2679 38.1415 79.2465C36.9141 79.2405 35.6867 79.2352 34.4592 79.2308C33.5826 79.2276 32.7059 79.2236 31.8293 79.219C31.3107 79.2164 30.7922 79.214 30.2737 79.2125C29.789 79.2111 29.3043 79.2088 28.8197 79.2057C28.6438 79.2047 28.4678 79.2041 28.2919 79.2038C25.9725 79.2004 22.9622 79.1249 21.1755 77.4176C20.9473 77.1289 20.9473 77.1289 20.9473 76.9141Z" fill="#FFEECF"/>
<path d="M39.7928 86.5781C40.2634 86.7102 40.3579 86.8049 40.6052 87.2227C40.9821 87.9319 41.1039 88.6316 41.1763 89.4212C41.2161 89.9723 41.2161 89.9723 41.4645 90.4453C42.1108 90.793 42.7955 90.8976 43.5121 91.0225C44.0765 91.1303 44.4462 91.2752 44.902 91.627C44.9707 91.6735 45.0394 91.72 45.1102 91.7679C45.2243 91.9492 45.2243 91.9492 45.231 92.3118C45.117 92.7008 45.0138 92.8867 44.6847 93.1246C43.9008 93.5444 42.9863 93.6132 42.1162 93.6978C41.7129 93.7928 41.587 93.8592 41.3571 94.2051C41.2674 94.5484 41.2277 94.8934 41.1893 95.2457C40.9557 97.2572 40.9557 97.2572 40.1755 97.9648C39.8599 98.0521 39.8599 98.0521 39.5309 97.9648C38.7902 97.3985 38.6283 96.5521 38.4886 95.6788C38.4754 95.5975 38.4622 95.5163 38.4486 95.4326C38.4231 95.2704 38.3994 95.1079 38.3778 94.9451C38.3035 94.4556 38.2089 94.1871 37.8122 93.8828C37.5532 93.7533 37.3178 93.7467 37.0326 93.7224C36.1331 93.64 35.3386 93.4577 34.5895 92.916C34.3812 92.5841 34.2912 92.3387 34.3747 91.9492C35.1086 91.0411 36.2656 90.9349 37.3443 90.7403C37.77 90.656 37.77 90.656 38.1345 90.4453C38.2228 90.1634 38.2228 90.1634 38.2486 89.8276C38.5393 87.5502 38.5393 87.5502 39.1013 86.9004C39.1478 86.8317 39.1943 86.763 39.2422 86.6923C39.4235 86.5781 39.4235 86.5781 39.7928 86.5781Z" fill="#FFA500"/>
<path d="M71.7578 42.5391C73.743 42.5391 75.7281 42.5391 77.7734 42.5391C77.65 44.5145 77.65 44.5145 77.5653 45.2846C77.5562 45.3705 77.547 45.4564 77.5376 45.5449C77.5092 45.8119 77.4802 46.0789 77.4512 46.3458C77.4318 46.5265 77.4125 46.7071 77.3933 46.8878C77.3054 47.7091 77.3054 47.7091 77.2615 48.1072C77.2434 48.2743 77.2264 48.4415 77.2099 48.6087C77.2011 48.6964 77.1922 48.7841 77.183 48.8745C77.1752 48.9546 77.1674 49.0347 77.1594 49.1173C77.1289 49.3066 77.1289 49.3066 77.0215 49.4141C76.7689 49.4427 76.5183 49.4651 76.2649 49.4837C76.1057 49.4966 75.9464 49.5094 75.7872 49.5223C75.5372 49.542 75.2872 49.5614 75.0371 49.5802C74.0656 49.6541 73.1357 49.7607 72.1866 49.9896C70.9273 50.2598 69.8754 49.9012 68.81 49.2257C68.6426 49.0918 68.6426 49.0918 68.4277 48.7695C68.5341 48.805 68.6404 48.8404 68.75 48.877C69.3344 49.0399 69.8235 49.088 70.3882 48.8165C71.5359 47.7992 71.4125 45.9278 71.5564 44.5062C71.6229 43.8571 71.6893 43.2079 71.7578 42.5391Z" fill="#FFEECF"/>
<path d="M26.9629 42.4297C29.0898 42.4297 31.2168 42.4297 33.4082 42.4297C33.2848 44.157 33.2848 44.157 33.1804 44.8698C33.1691 44.9496 33.1578 45.0295 33.1462 45.1118C33.1109 45.3615 33.075 45.611 33.0389 45.8605C33.0035 46.1096 32.9681 46.3588 32.9328 46.608C32.9111 46.7611 32.8892 46.9141 32.8671 47.0672C32.7551 47.8481 32.6531 48.6299 32.5488 49.4121C30.4573 49.4121 28.3658 49.4121 26.2109 49.4121C26.2951 48.6189 26.3793 47.8258 26.4661 47.0085C26.4921 46.7626 26.5182 46.5166 26.5451 46.2631C26.5666 46.0609 26.5881 45.8587 26.6096 45.6565C26.6201 45.5574 26.6306 45.4583 26.6414 45.3562C26.7452 44.3803 26.8545 43.4051 26.9629 42.4297Z" fill="#FFEECF"/>
<path d="M42.2168 42.5391C44.2729 42.5391 46.3289 42.5391 48.4473 42.5391C48.1384 44.9493 48.1384 44.9493 48.0424 45.6977C48.0165 45.9002 47.9906 46.1026 47.9647 46.3051C47.9519 46.4048 47.9391 46.5045 47.9259 46.6072C47.8065 47.5421 47.698 48.4778 47.5879 49.4141C45.5318 49.4141 43.4758 49.4141 41.3574 49.4141C41.7279 45.956 41.7279 45.956 41.9684 44.2847C42.0504 43.7086 42.1323 43.1326 42.2168 42.5391Z" fill="#FFEECF"/>
<path d="M39.9609 58.4375C42.017 58.4375 44.073 58.4375 46.1914 58.4375C45.9456 60.8957 45.9456 60.8957 45.7617 62.1167C45.6037 63.1807 45.4655 64.2446 45.332 65.3125C43.3469 65.3125 41.3617 65.3125 39.3164 65.3125C39.3164 64.3739 39.3419 63.5034 39.4574 62.5812C39.4764 62.4218 39.4764 62.4218 39.4958 62.2591C39.5425 61.8691 39.5907 61.4793 39.6387 61.0895C39.745 60.2143 39.8514 59.3392 39.9609 58.4375Z" fill="#FFEECF"/>
<path d="M24.8145 58.4375C26.8705 58.4375 28.9266 58.4375 31.0449 58.4375C30.9796 59.352 30.9107 60.2482 30.7898 61.1541C30.7759 61.2606 30.762 61.3672 30.7477 61.4769C30.7186 61.6988 30.6894 61.9206 30.6599 62.1425C30.6148 62.4822 30.5705 62.8221 30.5263 63.162C30.4978 63.3789 30.4693 63.5959 30.4407 63.8128C30.4275 63.9139 30.4143 64.0151 30.4007 64.1193C30.3881 64.2134 30.3756 64.3074 30.3626 64.4043C30.3517 64.4866 30.3409 64.5689 30.3296 64.6537C30.2941 64.8756 30.2401 65.0944 30.1855 65.3125C28.2004 65.3125 26.2152 65.3125 24.1699 65.3125C24.2934 63.2133 24.2934 63.2133 24.4053 62.2036C24.4158 62.1061 24.4262 62.0087 24.437 61.9084C24.4751 61.5548 24.5139 61.2013 24.5526 60.8478C24.639 60.0524 24.7254 59.257 24.8145 58.4375Z" fill="#FFEECF"/>
<path d="M57.2782 42.4219C57.383 42.4221 57.4877 42.4224 57.5956 42.4226C57.7138 42.4226 57.8321 42.4226 57.954 42.4226C58.0827 42.4232 58.2113 42.4237 58.3439 42.4243C58.4749 42.4245 58.6059 42.4246 58.7409 42.4248C59.1612 42.4254 59.5815 42.4267 60.0018 42.4281C60.286 42.4286 60.5701 42.4291 60.8543 42.4295C61.5526 42.4307 62.2509 42.4325 62.9492 42.4348C62.9694 43.2935 62.9097 44.1249 62.8082 44.9773C62.7956 45.088 62.7829 45.1987 62.7698 45.3128C62.7229 45.7209 62.6749 46.1289 62.627 46.537C62.5206 47.452 62.4143 48.367 62.3047 49.3098C60.3195 49.3098 58.3344 49.3098 56.2891 49.3098C56.2891 47.8594 56.2891 47.8594 56.3465 47.3732C56.3591 47.2639 56.3716 47.1547 56.3846 47.0422C56.3983 46.9293 56.4121 46.8165 56.4263 46.7002C56.4403 46.5807 56.4544 46.4612 56.4689 46.338C56.4984 46.0882 56.5283 45.8384 56.5585 45.5887C56.605 45.2046 56.6501 44.8204 56.695 44.4362C56.724 44.1927 56.753 43.9492 56.7821 43.7058C56.7957 43.5906 56.8092 43.4753 56.8232 43.3566C56.8361 43.2511 56.8489 43.1456 56.8622 43.0369C56.8734 42.9437 56.8847 42.8505 56.8962 42.7544C56.9489 42.4555 56.9723 42.4385 57.2782 42.4219Z" fill="#FFEECF"/>
<path d="M12.7514 13.6698C13.5202 13.9251 14.0168 14.5484 14.5062 15.1636C14.7068 15.3747 14.7068 15.3747 14.9716 15.4825C15.338 15.4667 15.4721 15.3097 15.7154 15.0485C15.7691 14.9883 15.8227 14.9281 15.878 14.8661C17.0417 13.6399 17.0417 13.6399 17.9056 13.5703C18.3035 13.5951 18.3713 13.6462 18.6978 13.9194C18.9394 14.348 18.9751 14.5564 18.9059 15.0406C18.7029 15.5091 18.4602 15.8559 18.1137 16.229C18.0288 16.3208 17.9439 16.4126 17.8565 16.5072C17.6018 16.7752 17.3454 17.0394 17.0797 17.2965C17.2201 17.6075 17.3687 17.8254 17.6135 18.0623C17.6748 18.1225 17.7362 18.1826 17.7994 18.2446C17.8951 18.337 17.8951 18.337 17.9928 18.4312C18.1195 18.5541 18.246 18.6773 18.3722 18.8008C18.4282 18.8549 18.4842 18.909 18.5419 18.9647C18.8262 19.2658 18.9052 19.4387 18.9529 19.8545C18.9383 20.2492 18.8477 20.5392 18.5635 20.833C18.1308 21.0904 17.6652 21.0474 17.1872 20.9489C16.5038 20.6271 16.0007 19.9794 15.5003 19.4319C15.4189 19.3653 15.3375 19.2987 15.2536 19.2301C14.9043 19.2668 14.7345 19.3899 14.4991 19.6422C14.4404 19.7034 14.3817 19.7646 14.3212 19.8276C14.2006 19.9566 14.08 20.0855 13.9595 20.2145C13.5261 20.6662 13.1359 20.9989 12.4963 21.1029C12.3623 21.1031 12.3623 21.1031 12.2256 21.1033C12.1355 21.1053 12.0453 21.1074 11.9524 21.1096C11.7087 21.0563 11.7087 21.0563 11.519 20.87C11.2832 20.4373 11.3007 20.0302 11.3864 19.5524C11.7439 18.7715 12.3953 18.092 13.1051 17.6188C13.0774 17.026 12.7145 16.7562 12.3062 16.3767C12.1783 16.2562 12.0508 16.1353 11.9239 16.0137C11.8672 15.9609 11.8105 15.9081 11.7521 15.8536C11.3684 15.4253 11.3258 14.9989 11.3398 14.4414C11.3907 14.1574 11.4445 14.0398 11.6482 13.8389C12.0748 13.6219 12.2893 13.5854 12.7514 13.6698Z" fill="#FFA500"/>
<path d="M18.9439 90.623C19.0341 90.6223 19.1243 90.6215 19.2172 90.6208C19.5152 90.6188 19.8131 90.6192 20.1111 90.6198C20.3185 90.6193 20.5259 90.6188 20.7333 90.6181C21.168 90.6172 21.6027 90.6174 22.0374 90.6185C22.5939 90.6197 23.1504 90.6176 23.7069 90.6144C24.1353 90.6125 24.5636 90.6125 24.9919 90.6131C25.1971 90.6131 25.4022 90.6125 25.6074 90.6111C25.8946 90.6095 26.1817 90.6107 26.4689 90.6125C26.5955 90.611 26.5955 90.611 26.7247 90.6094C27.2807 90.6168 27.5946 90.732 28.0377 91.0961C28.3305 91.5256 28.3352 91.9906 28.2525 92.4926C27.988 92.9473 27.8241 93.1034 27.3203 93.2598C26.8748 93.3603 26.4371 93.3838 25.9816 93.3832C25.8988 93.3839 25.8161 93.3846 25.7308 93.3854C25.4601 93.3874 25.1894 93.3878 24.9187 93.3881C24.729 93.3887 24.5394 93.3895 24.3498 93.3902C23.9535 93.3915 23.5572 93.3919 23.1609 93.3918C22.6542 93.3918 22.1476 93.3947 21.641 93.3984C21.2498 93.4008 20.8586 93.4012 20.4674 93.4011C20.2806 93.4013 20.0938 93.4023 19.9071 93.404C19.6456 93.4061 19.3844 93.4054 19.1229 93.4042C19.0466 93.4054 18.9703 93.4066 18.8917 93.4078C18.2301 93.3995 17.7903 93.1751 17.3022 92.7343C17.1294 92.3684 17.1194 92.0248 17.1881 91.6332C17.6252 90.8058 18.0345 90.6178 18.9439 90.623Z" fill="#FFA500"/>
<path d="M35.6976 14.2907C36.5785 14.7933 36.899 15.3823 37.1936 16.3393C37.4491 17.301 37.3828 17.8853 37.3828 19.0106C35.2559 19.0106 33.1289 19.0106 30.9375 19.0106C31.2142 17.3503 31.585 15.631 32.9831 14.5349C33.8347 13.9536 34.7573 13.8616 35.6976 14.2907Z" fill="#FFEECF"/>
<path d="M77.9329 14.5192C78.9064 15.2221 79.1956 16.3653 79.3848 17.5073C79.3942 17.6929 79.3988 17.8788 79.3982 18.0646C79.3986 18.2031 79.3986 18.2031 79.399 18.3445C79.3848 18.5816 79.3848 18.5816 79.2773 18.7964C77.1858 18.7964 75.0943 18.7964 72.9395 18.7964C73.1435 17.1642 73.6501 15.6426 74.9494 14.5671C75.941 13.8615 76.9065 13.9014 77.9329 14.5192Z" fill="#FFEECF"/>
<path d="M56.7905 14.3827C57.8101 14.9122 58.2534 15.7914 58.6129 16.8475C58.6727 17.1963 58.6678 17.544 58.6658 17.8966C58.6664 18.0063 58.6664 18.0063 58.667 18.1181C58.666 18.6616 58.666 18.6616 58.5449 18.9037C56.4889 18.9037 54.4328 18.9037 52.3145 18.9037C52.4685 17.363 52.8684 16.0097 54.0332 14.9425C54.8602 14.2737 55.7426 14.0237 56.7905 14.3827Z" fill="#FFEECF"/>
<path d="M75.6257 86.9071C76.0755 87.5272 75.9771 88.1036 75.9479 88.8407C75.9445 89.0148 75.9411 89.189 75.9379 89.3631C75.9325 89.5448 75.9269 89.7265 75.9211 89.9082C75.9196 89.9946 75.9181 90.081 75.9166 90.1701C75.8926 90.7384 75.7875 91.076 75.4108 91.5262C75.0646 91.828 74.7288 91.9461 74.2762 92.0096C73.7299 91.9302 73.4322 91.6794 73.0308 91.3173C72.7306 90.8199 72.7828 90.3565 72.7991 89.7873C72.8002 89.6809 72.8012 89.5745 72.8023 89.4649C72.833 87.4285 72.833 87.4285 73.3698 86.7997C74.0828 86.1327 74.9154 86.3388 75.6257 86.9071Z" fill="#FFA500"/>
<path d="M89.2692 72.469C89.3948 72.469 89.5204 72.4691 89.6498 72.4692C89.7806 72.4709 89.9115 72.4726 90.0463 72.4744C90.2401 72.4739 90.2401 72.4739 90.4378 72.4734C92.1014 72.4834 92.1014 72.4834 92.6983 72.9914C93.0744 73.4473 93.0635 73.7809 93.0575 74.3593C93.0153 74.7746 92.8789 74.9968 92.5976 75.3009C91.9796 75.7451 91.379 75.6745 90.6438 75.6702C90.5169 75.6724 90.39 75.6745 90.2593 75.6767C89.4774 75.6763 88.7627 75.6177 88.0859 75.1935C87.686 74.7431 87.7105 74.3732 87.7254 73.7882C87.7879 73.2752 88.0134 72.9963 88.3828 72.6552C88.6946 72.4641 88.9049 72.4679 89.2692 72.469Z" fill="#FFA500"/>
<path d="M60.6172 72.5749C60.8467 72.5744 61.0759 72.5705 61.3053 72.5664C61.4525 72.5658 61.5997 72.5654 61.7469 72.5652C61.8796 72.5643 62.0124 72.5634 62.1491 72.5625C62.6715 72.6361 62.9974 72.875 63.3625 73.2462C63.615 73.7111 63.5499 74.2516 63.4862 74.7631C63.263 75.1618 63.0478 75.3522 62.6269 75.5151C62.3502 75.5382 62.0854 75.5503 61.8086 75.5512C61.6902 75.5522 61.6902 75.5522 61.5694 75.5533C61.4028 75.5544 61.2361 75.5549 61.0694 75.5549C60.8157 75.5554 60.5622 75.5593 60.3085 75.5633C60.1461 75.564 59.9837 75.5644 59.8213 75.5646C59.7461 75.5661 59.6709 75.5677 59.5934 75.5693C59.0512 75.5643 58.7491 75.422 58.33 75.0854C57.9966 74.6965 57.939 74.326 57.9557 73.827C58.0477 73.3929 58.3083 73.0989 58.6523 72.8295C59.278 72.522 59.9366 72.5747 60.6172 72.5749Z" fill="#FFA500"/>
<path d="M76.9138 56.2856C77.3964 56.5269 77.6597 56.7626 77.8806 57.2524C77.9225 57.6202 77.9158 57.9837 77.9075 58.3534C77.9069 58.4505 77.9063 58.5476 77.9058 58.6476C77.883 60.627 77.883 60.627 77.3435 61.227C76.9384 61.5325 76.6027 61.6546 76.0947 61.6634C75.5858 61.5032 75.2388 61.2735 74.9634 60.7973C74.8254 60.3066 74.8462 59.8272 74.8526 59.3202C74.8527 59.218 74.8528 59.1158 74.8529 59.0105C74.8638 57.2381 74.8638 57.2381 75.2286 56.7757C75.7504 56.2781 76.2079 56.1863 76.9138 56.2856Z" fill="#FFA500"/>
<path d="M89.8047 38.3516C89.8401 38.3516 89.8756 38.3516 89.9121 38.3516C89.9194 40.2007 89.8998 42.0485 89.8651 43.8972C89.8627 44.0286 89.8603 44.16 89.8578 44.2953C89.731 51.181 89.731 51.181 89.4824 52.4238C89.1279 52.2466 88.7734 52.0693 88.4082 51.8867C88.42 51.7782 88.4317 51.6697 88.4439 51.5579C88.7785 48.4663 89.096 45.3731 89.4086 42.2792C89.4184 42.182 89.4282 42.0849 89.4383 41.9848C89.5607 40.7737 89.6828 39.5627 89.8047 38.3516Z" fill="#EFEDE9"/>
<path d="M87.8712 80.462C88.6443 80.7695 89.3468 81.182 89.6974 81.9659C89.7926 82.4485 89.7543 82.8086 89.5497 83.255C89.3751 83.4698 89.3751 83.4698 89.1603 83.5773C88.2893 83.6661 87.6331 83.3307 86.9716 82.7917C86.4961 82.3485 86.304 81.9588 86.2129 81.308C86.2723 80.9173 86.4171 80.7425 86.6896 80.462C87.0731 80.2703 87.4696 80.367 87.8712 80.462Z" fill="#FFA500"/>
<path d="M62.7352 80.3505C63.0313 80.5848 63.2117 80.7664 63.3798 81.1024C63.4064 81.5183 63.3851 81.9104 63.1389 82.2572C62.5423 82.8053 61.6881 83.2705 60.8688 83.3046C60.4669 83.2491 60.2608 83.1743 59.9423 82.9286C59.8758 82.8843 59.8093 82.84 59.7408 82.7943C59.62 82.6063 59.62 82.6063 59.6133 82.2572C59.8556 81.402 60.457 81.0112 61.2024 80.5829C61.7032 80.326 62.1811 80.261 62.7352 80.3505Z" fill="#FFA500"/>
<path d="M85.2925 58.7572C85.5488 58.9414 85.5932 59.0817 85.6555 59.3854C85.7219 60.1636 85.3906 60.8061 84.9703 61.4428C84.5262 61.9238 84.1446 62.2821 83.4798 62.3357C83.1721 62.3284 83.0446 62.3065 82.7681 62.1544C82.5093 61.7015 82.514 61.3059 82.607 60.7982C82.9341 59.9441 83.4215 59.3077 84.2137 58.8508C84.5934 58.6889 84.8814 58.7181 85.2925 58.7572Z" fill="#FFA500"/>
<path d="M68.9649 58.8676C69.1952 59.0868 69.3355 59.2501 69.5021 59.5121C69.5523 59.5912 69.6026 59.6702 69.6544 59.7517C70.0293 60.4122 70.1835 61.012 70.0392 61.7679C69.8995 62.1003 69.8026 62.1808 69.5021 62.4125C68.9948 62.493 68.7647 62.4675 68.3003 62.2581C67.7502 61.7568 67.4022 61.1001 67.3318 60.3555C67.3204 59.8145 67.3582 59.435 67.6759 58.975C68.1288 58.5723 68.4262 58.6271 68.9649 58.8676Z" fill="#FFA500"/>
<path d="M62.4124 64.5591C63.2181 64.7852 63.9569 65.1557 64.393 65.8952C64.4969 66.3682 64.5574 66.7507 64.299 67.1775C63.8894 67.4373 63.5391 67.4903 63.057 67.4595C62.1976 67.2572 61.589 66.9202 61.0227 66.2443C60.8632 65.8409 60.8845 65.5011 61.016 65.0962C61.3934 64.5472 61.776 64.4405 62.4124 64.5591Z" fill="#FFA500"/>
<path d="M67.5689 85.7243C67.859 85.9176 68.0568 86.0556 68.2135 86.3688C68.2733 87.1163 68.1269 87.6749 67.6734 88.2621C66.766 89.3009 66.766 89.3009 66.1187 89.4304C65.7034 89.3473 65.5618 89.1781 65.3131 88.8395C65.1156 88.2884 65.1766 87.8538 65.4205 87.3289C65.9008 86.4713 66.4849 85.5916 67.5689 85.7243Z" fill="#FFA500"/>
<path d="M81.8254 85.6574C82.4729 85.8388 82.8204 86.4328 83.1371 86.9881C83.4039 87.5659 83.4665 88.1062 83.3586 88.7337C83.2042 89.0224 83.2042 89.0224 82.929 89.1633C82.4803 89.2691 82.1245 89.2603 81.7234 89.0207C80.9921 88.4137 80.6166 87.7562 80.5254 86.8135C80.5322 86.4823 80.5849 86.2684 80.7738 85.9944C81.1532 85.6847 81.3456 85.6216 81.8254 85.6574Z" fill="#FFA500"/>
<path d="M93.1357 12.7859C93.5437 12.9788 93.7287 13.14 93.9816 13.511C94.1282 13.9343 94.1811 14.2769 94.1025 14.7195C93.9097 15.1125 93.7424 15.3155 93.3841 15.5654C92.9259 15.7211 92.539 15.7905 92.0615 15.6863C91.6402 15.4368 91.358 15.1873 91.2021 14.7195C91.1579 14.266 91.151 13.8736 91.3297 13.4506C91.8685 12.8002 92.3049 12.6554 93.1357 12.7859Z" fill="#FFA500"/>
<path d="M98.0752 18.3672C98.546 18.6025 98.8451 18.8416 99.042 19.334C99.1183 19.8429 99.0926 20.1996 98.8607 20.6633C98.548 21.0183 98.3262 21.2346 97.8448 21.2978C97.3358 21.318 96.9727 21.2876 96.5713 20.9453C96.2064 20.5301 96.2002 20.1261 96.2184 19.5958C96.2752 19.1103 96.4358 18.809 96.7996 18.488C97.2343 18.3179 97.6145 18.294 98.0752 18.3672Z" fill="#FFA500"/>
<path d="M15.576 86.6929C15.8912 86.8859 16.0564 87.0092 16.2205 87.3374C16.2898 87.8968 16.319 88.2846 15.9654 88.7406C15.4812 89.098 15.0941 89.131 14.5017 89.0562C14.1289 88.8341 13.8811 88.6148 13.7498 88.1968C13.7036 87.8405 13.6727 87.5733 13.8627 87.2569C14.3657 86.6396 14.8126 86.6029 15.576 86.6929Z" fill="#FFA500"/>
<path d="M21.2695 76.9141C31.1244 76.9141 40.9793 76.9141 51.1328 76.9141C51.1328 77.0204 51.1328 77.1268 51.1328 77.2363C51.0694 77.2288 51.0061 77.2212 50.9408 77.2134C50.2373 77.1355 49.5439 77.1126 48.8365 77.1119C48.718 77.1114 48.5995 77.1108 48.4774 77.1103C48.0829 77.1087 47.6884 77.1078 47.2939 77.1069C47.0101 77.1058 46.7263 77.1047 46.4425 77.1036C45.8328 77.1013 45.2231 77.0993 44.6134 77.0977C43.7319 77.0952 42.8504 77.0922 41.9688 77.089C40.5384 77.0839 39.108 77.0793 37.6775 77.0749C36.2885 77.0707 34.8995 77.0662 33.5105 77.0615C33.4248 77.0612 33.3391 77.0609 33.2508 77.0606C32.8208 77.0591 32.3908 77.0576 31.9608 77.0562C28.397 77.0439 24.8333 77.0325 21.2695 77.0215C21.2695 76.986 21.2695 76.9506 21.2695 76.9141Z" fill="#FAFDFE"/>
<path d="M37.2754 17.7266C37.3108 17.7266 37.3463 17.7266 37.3828 17.7266C37.3828 18.152 37.3828 18.5773 37.3828 19.0156C35.2559 19.0156 33.1289 19.0156 30.9375 19.0156C30.9729 18.9447 31.0084 18.8738 31.0449 18.8008C33.0655 18.8008 35.0861 18.8008 37.168 18.8008C37.2034 18.4463 37.2389 18.0918 37.2754 17.7266Z" fill="#F5F6F3"/>
<path d="M96.4647 70.1484C96.5001 70.1484 96.5356 70.1484 96.5721 70.1484C96.669 70.8751 96.6913 71.5917 96.6929 72.3237C96.6934 72.4165 96.6939 72.5092 96.6944 72.6048C96.6933 73.0873 96.6698 73.5408 96.5721 74.0156C96.3223 73.6409 96.3308 73.4923 96.3325 73.0501C96.3327 72.9232 96.3329 72.7963 96.3331 72.6655C96.3344 72.5328 96.3357 72.4001 96.3371 72.2633C96.3372 72.1318 96.3372 72.0003 96.3373 71.8649C96.3402 71.2786 96.356 70.726 96.4647 70.1484Z" fill="#E9E8E4"/>
<path d="M89.483 43.1875C89.5185 43.1875 89.5539 43.1875 89.5905 43.1875C89.5905 44.5346 89.5905 45.8816 89.5905 47.2695C89.555 47.1986 89.5196 47.1277 89.483 47.0547C89.4121 47.0547 89.3413 47.0547 89.2682 47.0547C89.0794 46.5709 89.0326 46.1764 89.0534 45.6582C89.1243 45.6582 89.1952 45.6582 89.2682 45.6582C89.3547 45.1053 89.4049 44.5584 89.4361 43.9999C89.4407 43.9213 89.4453 43.8427 89.4501 43.7617C89.4614 43.5703 89.4722 43.3789 89.483 43.1875Z" fill="#EBE6DB"/>
<path d="M89.5902 48.5547C89.6257 48.5547 89.6611 48.5547 89.6976 48.5547C89.7121 49.6704 89.6721 50.7722 89.5902 51.8848C89.5548 51.8848 89.5193 51.8848 89.4828 51.8848C89.2403 49.4814 89.2403 49.4814 89.5902 48.5547Z" fill="#E9E8E7"/>
<path d="M89.3755 42.8594C89.4818 42.8594 89.5882 42.8594 89.6977 42.8594C89.6623 42.9657 89.6268 43.0721 89.5903 43.1816C89.5769 43.35 89.5687 43.5189 89.5639 43.6877C89.5603 43.786 89.5568 43.8843 89.5532 43.9856C89.5466 44.1918 89.5405 44.398 89.5347 44.6041C89.5001 45.533 89.5001 45.533 89.268 45.9746C89.2326 45.9746 89.1971 45.9746 89.1606 45.9746C89.128 44.9156 89.2252 43.9045 89.3755 42.8594Z" fill="#F0F0EF"/>
<path d="M55.1074 72.5078C55.1428 72.5078 55.1783 72.5078 55.2148 72.5078C55.2148 72.7205 55.2148 72.9332 55.2148 73.1523C55.1793 73.1523 55.1439 73.1523 55.1074 73.1523C55.1074 72.9396 55.1074 72.727 55.1074 72.5078ZM54.9999 73.1523C55.0354 73.1523 55.0708 73.1523 55.1074 73.1523C55.0719 74.4285 55.0365 75.7047 54.9999 77.0195C54.9645 77.0195 54.929 77.0195 54.8925 77.0195C54.8718 76.5206 54.8526 76.0217 54.8348 75.5227C54.8285 75.3529 54.8219 75.1832 54.8148 75.0135C54.8047 74.7695 54.796 74.5256 54.7876 74.2815C54.7841 74.2057 54.7807 74.1298 54.7771 74.0516C54.7649 73.6504 54.7705 73.4965 54.9999 73.1523Z" fill="#EAE6DC"/>
<path d="M85.0781 35.4531C85.6808 35.4531 86.2834 35.4531 86.9043 35.4531C86.8688 35.7367 86.8334 36.0203 86.7969 36.3125C86.726 36.2416 86.6551 36.1707 86.582 36.0977C86.582 35.9913 86.582 35.885 86.582 35.7754C86.0857 35.7754 85.5895 35.7754 85.0781 35.7754C85.0781 35.669 85.0781 35.5627 85.0781 35.4531Z" fill="#D1CDC7"/>
<path d="M19.3359 40.9297C19.4068 40.9651 19.4777 41.0006 19.5508 41.0371C19.4989 41.7037 19.4076 42.3261 19.2285 42.9707C19.1576 42.9707 19.0867 42.9707 19.0137 42.9707C19.0467 42.6506 19.0803 42.3306 19.1144 42.0106C19.1237 41.9193 19.1331 41.828 19.1427 41.7339C19.1521 41.647 19.1614 41.5601 19.171 41.4706C19.1795 41.3901 19.1879 41.3097 19.1966 41.2268C19.2285 41.0371 19.2285 41.0371 19.3359 40.9297Z" fill="#E1E1E0"/>
<path d="M70.0391 95.0703C70.3581 95.1058 70.6771 95.1412 71.0059 95.1777C71.0059 95.2841 71.0059 95.3904 71.0059 95.5C70.6868 95.4646 70.3678 95.4291 70.0391 95.3926C70.0391 95.2862 70.0391 95.1799 70.0391 95.0703Z" fill="#E3E2DE"/>
<path d="M16.1133 64.8828C16.2341 65.2856 16.2341 65.2856 16.1133 65.5273C16.0745 65.7775 16.0384 66.0282 16.0059 66.2793C15.935 66.2084 15.8641 66.1375 15.791 66.0645C15.7935 65.832 15.7935 65.832 15.8313 65.5676C15.8432 65.4798 15.8551 65.392 15.8674 65.3016C15.8776 65.2343 15.8879 65.167 15.8984 65.0977C15.9693 65.0977 16.0402 65.0977 16.1133 65.0977C16.1133 65.0268 16.1133 64.9559 16.1133 64.8828Z" fill="#E7E7E4"/>
<path d="M17.6177 52.4219C17.724 52.4219 17.8304 52.4219 17.94 52.4219C17.9277 52.6144 17.914 52.8069 17.8997 52.9993C17.8885 53.16 17.8885 53.16 17.877 53.3241C17.8325 53.6035 17.8325 53.6035 17.6177 53.8184C17.4784 53.3231 17.5413 52.9226 17.6177 52.4219Z" fill="#E0E0DD"/>
<path d="M18.9062 44.5781C19.0539 44.9882 18.9793 45.3379 18.9062 45.7598C18.7999 45.7598 18.6936 45.7598 18.584 45.7598C18.5962 45.5829 18.6099 45.4061 18.6243 45.2294C18.6317 45.1309 18.6392 45.0325 18.6469 44.931C18.6616 44.85 18.6763 44.769 18.6914 44.6855C18.7623 44.6501 18.8332 44.6146 18.9062 44.5781Z" fill="#E5E4E1"/>
<path d="M54.8927 77.3438C54.9636 77.3438 55.0345 77.3438 55.1076 77.3438C55.1076 77.7691 55.1076 78.1945 55.1076 78.6328C54.7853 78.3105 54.7853 78.3105 54.7773 78.0676C54.7911 77.9816 54.8048 77.8956 54.8189 77.807C54.8318 77.7202 54.8446 77.6334 54.8579 77.5439C54.8694 77.4779 54.8809 77.4118 54.8927 77.3438Z" fill="#E6E3DE"/>
<path d="M17.4023 53.9219C17.6551 54.4275 17.6356 54.6598 17.6172 55.2109C17.5108 55.2109 17.4045 55.2109 17.2949 55.2109C17.3304 54.7855 17.3658 54.3602 17.4023 53.9219Z" fill="#E3E3E0"/>
<path d="M64.7754 93.3516C64.9172 93.3516 65.059 93.3516 65.2051 93.3516C65.276 93.4225 65.3469 93.4934 65.4199 93.5664C65.4908 93.5664 65.5617 93.5664 65.6348 93.5664C65.6348 93.6373 65.6348 93.7082 65.6348 93.7812C65.7057 93.8167 65.7766 93.8521 65.8496 93.8887C65.7433 93.9418 65.7433 93.9418 65.6348 93.9961C65.4258 93.8929 65.4258 93.8929 65.1917 93.741C65.1138 93.6914 65.036 93.6418 64.9558 93.5907C64.8963 93.5473 64.8367 93.5038 64.7754 93.459C64.7754 93.4235 64.7754 93.3881 64.7754 93.3516Z" fill="#E4E4E3"/>
<path d="M56.8262 85.0781C56.9325 85.1136 57.0389 85.149 57.1484 85.1855C57.1484 85.3273 57.1484 85.4691 57.1484 85.6152C57.2193 85.6152 57.2902 85.6152 57.3633 85.6152C57.3278 85.757 57.2924 85.8988 57.2559 86.0449C56.987 85.7293 56.8832 85.4886 56.8262 85.0781Z" fill="#E3E2E0"/>
</svg>
