<svg width="327" height="250" viewBox="0 0 327 250" fill="none" xmlns="http://www.w3.org/2000/svg">
<g clip-path="url(#clip0_3433_37422)">
<path d="M233.422 87.413C183.222 84.441 154.099 62.0634 154.099 62.0634C154.099 62.0634 125.063 84.441 74.8634 87.413C74.8634 109.965 68.3042 207.518 154.099 225.437C239.981 207.518 233.422 109.965 233.422 87.413Z" fill="white"/>
<path d="M256.336 71.0668C191.618 67.2207 154.099 38.4619 154.099 38.4619C154.099 38.4619 116.667 67.2207 51.9496 71.0668C51.9496 100.088 43.4663 225.874 154.186 249.039C264.819 225.874 256.336 100.175 256.336 71.0668ZM154.099 225.437C68.304 207.43 74.8632 109.965 74.8632 87.413C125.063 84.4409 154.099 62.0633 154.099 62.0633C154.099 62.0633 183.134 84.3535 233.334 87.3256C233.422 109.965 239.981 207.43 154.099 225.437Z" fill="#FFA500" stroke="#FFA500" stroke-miterlimit="10"/>
<path d="M144.216 178.934L118.503 146.591C114.743 141.871 115.53 135.052 120.253 131.381C124.975 127.622 131.797 128.409 135.47 133.129L148.064 148.951L187.507 119.406C192.317 115.822 199.138 116.783 202.724 121.591C206.31 126.399 205.348 133.217 200.538 136.801L144.216 178.934Z" fill="#FFA500"/>
<g opacity="0.7">
<path d="M312.307 177.623L314.668 175.35C315.543 174.563 315.543 173.165 314.756 172.378L312.569 170.105C311.782 169.231 311.782 167.92 312.657 167.133L312.832 166.958C313.706 166.172 315.018 166.172 315.805 167.046L317.992 169.319C318.779 170.193 320.178 170.193 320.965 169.406L323.326 167.133C324.201 166.347 325.513 166.347 326.3 167.221C327.087 168.095 327.087 169.406 326.213 170.193L323.851 172.465C322.977 173.252 322.977 174.651 323.764 175.437L325.95 177.71C326.737 178.584 326.737 179.896 325.863 180.682L325.688 180.857C324.813 181.644 323.501 181.644 322.714 180.77L320.528 178.497C319.741 177.623 318.341 177.623 317.554 178.409L315.193 180.682C314.318 181.469 313.007 181.469 312.219 180.595C311.432 179.808 311.432 178.409 312.307 177.623Z" fill="#FFA500"/>
<path d="M103.986 26.8358C103.898 26.8358 103.898 26.8358 103.986 26.8358C103.636 26.8358 103.373 26.661 103.111 26.4862L102.324 25.6121C102.236 25.5246 102.149 25.5246 102.062 25.5246C101.887 25.5246 101.887 25.5246 101.799 25.6121L100.925 26.3988C100.487 26.8358 99.7002 26.8358 99.2629 26.3988C99.088 26.1365 98.9131 25.8743 98.9131 25.5246C98.9131 25.175 99.088 24.9128 99.2629 24.7379L100.137 23.9512C100.312 23.7764 100.312 23.6016 100.137 23.4267L99.3504 22.5526C98.9131 22.1155 98.9131 21.3288 99.3504 20.8918L99.4378 20.8044C99.8751 20.3673 100.662 20.3673 101.099 20.8044L101.887 21.6785C102.062 21.8533 102.236 21.8533 102.411 21.6785L103.286 20.8918C103.548 20.7169 103.811 20.5421 104.16 20.5421C104.51 20.5421 104.773 20.7169 104.948 20.8918C105.123 21.154 105.297 21.4162 105.297 21.7659C105.297 22.1155 105.123 22.3778 104.948 22.5526L104.073 23.3393C103.986 23.4267 103.986 23.5142 103.986 23.6016C103.986 23.689 103.986 23.7764 104.073 23.8638L104.86 24.7379C105.035 25.0002 105.21 25.2624 105.21 25.6121C105.21 25.9617 105.035 26.2239 104.86 26.3988L104.773 26.4862C104.51 26.7484 104.248 26.8358 103.986 26.8358ZM102.062 24.7379C102.411 24.7379 102.674 24.9128 102.936 25.0876L103.723 25.9617C103.811 26.0491 103.898 26.0491 103.986 26.0491C104.073 26.0491 104.16 26.0491 104.248 25.9617L104.335 25.8743C104.423 25.7869 104.423 25.6995 104.423 25.6121C104.423 25.5246 104.423 25.4372 104.335 25.3498L103.548 24.4757C103.373 24.2135 103.198 23.9512 103.198 23.6016C103.198 23.2519 103.373 22.9897 103.548 22.8149L104.423 22.0281C104.51 21.9407 104.51 21.8533 104.51 21.7659C104.51 21.6785 104.51 21.5911 104.423 21.5037C104.335 21.4162 104.248 21.4162 104.16 21.4162C104.073 21.4162 103.986 21.4162 103.898 21.5037L103.024 22.2904C102.586 22.7274 101.799 22.7274 101.362 22.2904L100.575 21.4162C100.4 21.2414 100.225 21.2414 100.05 21.4162L99.9626 21.5037C99.7877 21.6785 99.7877 21.8533 99.9626 22.0281L100.75 22.9023C101.187 23.3393 101.187 24.126 100.75 24.5631L99.8751 25.3498C99.7877 25.4372 99.7877 25.5246 99.7877 25.6121C99.7877 25.6995 99.7877 25.7869 99.8751 25.8743C99.9626 25.9617 100.05 25.9617 100.137 25.9617C100.225 25.9617 100.312 25.9617 100.4 25.8743L101.274 25.0876C101.449 24.8253 101.712 24.7379 102.062 24.7379Z" fill="#FFA500"/>
<path d="M17.2289 88.462L13.993 88.3745C12.8561 88.3745 11.8941 89.2487 11.8066 90.4724L11.7192 93.6193C11.7192 94.7557 10.7572 95.7172 9.53276 95.7172H9.27039C8.13346 95.7172 7.17144 94.7557 7.17144 93.5319L7.25889 90.385C7.25889 89.2487 6.38433 88.2871 5.15994 88.1997L1.92404 88.1123C0.874565 88.1997 0 87.2382 0 86.0144C0 84.878 0.962022 83.9165 2.18641 83.9165L5.42231 84.0039C6.55924 84.0039 7.52126 83.1298 7.60872 81.906L7.69618 78.7592C7.69618 77.6228 8.6582 76.6613 9.88259 76.6613H10.145C11.2819 76.6613 12.2439 77.6228 12.2439 78.8466L12.1565 81.9934C12.1565 83.1298 13.031 84.0913 14.2554 84.1787L17.4913 84.2662C18.6282 84.2662 19.5903 85.2277 19.5903 86.4515C19.3279 87.5878 18.3659 88.5494 17.2289 88.462Z" fill="#FFA500"/>
<path d="M278.112 11.3641C277.587 11.3641 277.062 11.2767 276.538 11.1019C273.564 10.2277 271.815 7.08088 272.689 4.10885C273.127 2.62284 274.089 1.48647 275.401 0.69976C276.712 0.00045977 278.287 -0.174365 279.686 0.262698C282.66 1.13682 284.409 4.28368 283.534 7.2557C282.834 9.70326 280.561 11.3641 278.112 11.3641ZM278.024 0.787173C277.237 0.787173 276.45 0.961998 275.663 1.39906C274.526 2.01095 273.739 3.0599 273.389 4.28368C273.039 5.50745 273.214 6.81864 273.826 7.95501C274.439 9.09137 275.488 9.87808 276.712 10.2277C279.249 10.927 281.96 9.52843 282.747 6.90605C283.534 4.37109 282.047 1.6613 279.424 0.874586C278.986 0.874586 278.549 0.787173 278.024 0.787173Z" fill="#FFA500"/>
<path d="M36.0317 221.329C35.507 221.329 34.9822 221.241 34.4575 221.067C31.484 220.192 29.7348 217.046 30.6094 214.074C31.4839 211.102 34.6324 209.353 37.6059 210.227C40.5794 211.102 42.3286 214.248 41.454 217.22C41.0167 218.706 40.0547 219.843 38.7428 220.63C37.8683 221.154 36.9063 221.329 36.0317 221.329ZM35.9442 210.839C33.8453 210.839 31.9212 212.238 31.309 214.336C30.5219 216.871 32.0087 219.581 34.6324 220.367C35.8568 220.717 37.1686 220.542 38.3056 219.93C39.4425 219.318 40.2296 218.269 40.5794 217.046C41.3665 214.511 39.8798 211.801 37.2561 211.014C36.9063 210.927 36.469 210.839 35.9442 210.839Z" fill="#FFA500"/>
<path d="M86.8444 234.179C86.7569 234.179 86.6694 234.179 86.582 234.091C86.3196 233.829 86.0573 233.567 85.7074 233.305C85.5325 233.13 85.5325 232.868 85.7074 232.693C85.8823 232.518 86.1447 232.518 86.3196 232.693C86.582 232.955 86.8444 233.217 87.1067 233.48C87.2816 233.654 87.2816 233.917 87.1067 234.091C87.0193 234.179 86.9318 234.179 86.8444 234.179ZM84.2207 231.731C84.1332 231.731 84.0458 231.731 83.9583 231.644C83.3461 231.032 82.8214 230.507 82.2092 229.896C82.0343 229.721 82.0343 229.459 82.2092 229.284C82.3841 229.109 82.6464 229.109 82.8214 229.284C83.4336 229.896 83.9583 230.42 84.5705 231.032C84.7454 231.207 84.7454 231.469 84.5705 231.644C84.483 231.731 84.3081 231.731 84.2207 231.731ZM80.7224 228.235C80.635 228.235 80.5475 228.235 80.46 228.147C79.8478 227.535 79.3231 226.924 78.7984 226.312C78.6234 226.137 78.6234 225.875 78.7984 225.7C78.9733 225.525 79.2356 225.525 79.4106 225.7C79.9353 226.312 80.5475 226.924 81.0722 227.535C81.2471 227.71 81.2471 227.973 81.0722 228.147C80.9848 228.147 80.8973 228.235 80.7224 228.235ZM77.3991 224.563C77.3116 224.563 77.1367 224.476 77.0492 224.389C76.5245 223.777 75.9998 223.165 75.3876 222.553C75.2126 222.378 75.3001 222.116 75.475 221.941C75.6499 221.766 75.9123 221.854 76.0872 222.028C76.6119 222.64 77.1367 223.252 77.6614 223.864C77.8363 224.039 77.8363 224.301 77.6614 224.476C77.574 224.563 77.4865 224.563 77.3991 224.563ZM74.2506 220.805C74.1632 220.805 73.9883 220.717 73.9008 220.63C73.3761 220.018 72.8513 219.319 72.3266 218.707C72.1517 218.532 72.2391 218.27 72.414 218.095C72.589 217.92 72.8513 218.007 73.0262 218.182C73.551 218.794 74.0757 219.494 74.6005 220.105C74.7754 220.28 74.6879 220.542 74.513 220.717C74.4255 220.805 74.3381 220.805 74.2506 220.805ZM71.1896 216.959C71.1022 216.959 70.9273 216.871 70.8398 216.784C70.3151 216.084 69.8778 215.473 69.3531 214.773C69.1781 214.598 69.2656 214.336 69.4405 214.161C69.6154 213.987 69.8778 214.074 70.0527 214.249C70.5774 214.948 71.0147 215.56 71.5395 216.259C71.7144 216.434 71.6269 216.696 71.452 216.871C71.3646 216.959 71.2771 216.959 71.1896 216.959ZM68.3036 213.025C68.2161 213.025 68.0412 212.938 67.9538 212.85C67.5165 212.151 66.9917 211.539 66.5544 210.84C66.467 210.665 66.467 210.403 66.6419 210.228C66.8168 210.14 67.0792 210.14 67.2541 210.315C67.6914 211.014 68.2161 211.626 68.6534 212.326C68.7409 212.5 68.7409 212.763 68.5659 212.938C68.391 212.938 68.3036 213.025 68.3036 213.025ZM65.505 208.917C65.3301 208.917 65.2426 208.829 65.1551 208.742C64.7179 208.042 64.2806 207.343 63.8433 206.644C63.7558 206.469 63.7558 206.207 63.9307 206.119C64.1057 206.032 64.368 206.032 64.4555 206.207C64.8928 206.906 65.3301 207.605 65.7673 208.305C65.8548 208.48 65.8548 208.742 65.6799 208.917C65.6799 208.917 65.5924 208.917 65.505 208.917ZM62.8813 204.721C62.7064 204.721 62.6189 204.633 62.5314 204.546C62.0942 203.847 61.6569 203.147 61.3071 202.448C61.2196 202.273 61.2196 202.011 61.482 201.924C61.6569 201.836 61.9193 201.836 62.0067 202.098C62.444 202.798 62.8813 203.497 63.2311 204.196C63.3186 204.371 63.3186 204.633 63.0562 204.721C62.9687 204.721 62.9687 204.721 62.8813 204.721ZM60.345 200.438C60.1701 200.438 60.0827 200.35 59.9952 200.263C59.5579 199.563 59.2081 198.864 58.7708 198.077C58.6834 197.903 58.7708 197.64 58.9457 197.553C59.1206 197.466 59.383 197.553 59.4705 197.728C59.8203 198.427 60.2576 199.126 60.6949 199.913C60.7823 200.088 60.6949 200.35 60.5199 200.438C60.5199 200.438 60.4325 200.438 60.345 200.438ZM57.9837 196.154C57.8088 196.154 57.7213 196.067 57.6339 195.892C57.2841 195.193 56.8468 194.406 56.4969 193.707C56.4095 193.532 56.4969 193.27 56.6719 193.182C56.8468 193.095 57.1091 193.182 57.1966 193.357C57.5464 194.056 57.8962 194.843 58.3335 195.542C58.421 195.717 58.3335 195.98 58.1586 196.067C58.1586 196.154 58.0712 196.154 57.9837 196.154ZM55.7973 191.784C55.6224 191.784 55.5349 191.696 55.4475 191.521C55.0976 190.822 54.7478 190.035 54.398 189.336C54.3105 189.161 54.398 188.899 54.5729 188.812C54.7478 188.724 55.0102 188.812 55.0976 188.987C55.4475 189.686 55.7973 190.473 56.1471 191.172C56.2346 191.347 56.1471 191.609 55.9722 191.696C55.9722 191.784 55.8847 191.784 55.7973 191.784ZM53.6983 187.326C53.5234 187.326 53.3485 187.238 53.3485 187.063C52.9987 186.277 52.6489 185.577 52.3865 184.791C52.299 184.616 52.3865 184.354 52.5614 184.266C52.7363 184.179 52.9987 184.266 53.0861 184.441C53.436 185.228 53.6983 185.927 54.0482 186.714C54.1356 186.889 54.0482 187.151 53.8732 187.238C53.8732 187.326 53.7858 187.326 53.6983 187.326ZM51.7743 182.78C51.5994 182.78 51.4245 182.693 51.4245 182.518C51.0746 181.731 50.8123 181.032 50.4624 180.245C50.375 180.07 50.4624 179.808 50.7248 179.721C50.8997 179.633 51.1621 179.721 51.2496 179.983C51.5119 180.77 51.8617 181.469 52.2116 182.256C52.299 182.431 52.2116 182.693 51.9492 182.78C51.8617 182.78 51.8617 182.78 51.7743 182.78ZM49.9377 178.235C49.7628 178.235 49.5879 178.147 49.5879 177.973C49.3255 177.186 48.9757 176.399 48.7133 175.7C48.6259 175.525 48.7133 175.263 48.9757 175.175C49.1506 175.088 49.413 175.175 49.5004 175.438C49.7628 176.224 50.1126 177.011 50.375 177.71C50.4624 177.885 50.375 178.147 50.1126 178.235C50.1126 178.235 50.0252 178.235 49.9377 178.235ZM48.276 173.602C48.1011 173.602 47.9262 173.514 47.9262 173.34C47.6638 172.553 47.4015 171.766 47.1391 170.98C47.0516 170.805 47.1391 170.542 47.4015 170.455C47.5764 170.368 47.8387 170.455 47.9262 170.717C48.1886 171.504 48.4509 172.291 48.7133 173.077C48.8008 173.252 48.7133 173.514 48.4509 173.602C48.3635 173.602 48.276 173.602 48.276 173.602ZM46.7018 168.882C46.5269 168.882 46.352 168.794 46.352 168.619C46.0896 167.833 45.8272 167.046 45.5649 166.259C45.4774 166.084 45.6523 165.822 45.8272 165.735C46.0896 165.647 46.2645 165.822 46.352 165.997C46.6144 166.784 46.8767 167.57 47.1391 168.357C47.2266 168.532 47.0516 168.794 46.8767 168.882C46.7893 168.882 46.7018 168.882 46.7018 168.882ZM45.2151 164.249C45.0401 164.249 44.8652 164.161 44.7778 163.987C44.5154 163.2 44.3405 162.413 44.0781 161.626C43.9907 161.452 44.1656 161.189 44.3405 161.102C44.5154 161.014 44.7778 161.189 44.8652 161.364C45.1276 162.151 45.3025 162.938 45.5649 163.724C45.6523 163.899 45.4774 164.161 45.3025 164.249H45.2151ZM43.8157 159.441C43.6408 159.441 43.4659 159.354 43.3785 159.179C43.2036 158.392 42.9412 157.605 42.7663 156.819C42.6788 156.556 42.8537 156.382 43.0286 156.294C43.291 156.207 43.4659 156.382 43.5534 156.556C43.7283 157.343 43.9907 158.13 44.1656 158.917C44.253 159.179 44.0781 159.354 43.9032 159.441C43.9032 159.441 43.9032 159.441 43.8157 159.441ZM42.5914 154.721C42.4164 154.721 42.2415 154.633 42.1541 154.371C41.9792 153.584 41.7168 152.798 41.5419 152.011C41.4544 151.749 41.6293 151.574 41.8042 151.487C42.0666 151.399 42.2415 151.574 42.329 151.749C42.5039 152.535 42.6788 153.322 42.9412 154.109C43.0286 154.371 42.8537 154.546 42.6788 154.633C42.6788 154.721 42.5914 154.721 42.5914 154.721ZM41.4544 149.913C41.2795 149.913 41.1046 149.826 41.0171 149.563C40.8422 148.777 40.6673 147.99 40.4924 147.116C40.4049 146.854 40.5799 146.679 40.8422 146.591C41.1046 146.504 41.2795 146.679 41.367 146.941C41.5419 147.728 41.7168 148.514 41.8917 149.389C41.9792 149.651 41.8042 149.826 41.5419 149.913H41.4544ZM40.4049 145.105C40.23 145.105 40.0551 144.931 39.9677 144.756C39.7927 143.969 39.6178 143.182 39.4429 142.308C39.3555 142.046 39.5304 141.871 39.7927 141.784C40.0551 141.696 40.23 141.871 40.3175 142.133C40.4924 142.92 40.6673 143.707 40.8422 144.581C40.8422 144.843 40.6673 145.018 40.4049 145.105ZM39.4429 140.21C39.268 140.21 39.0931 140.035 39.0056 139.861C38.8307 139.074 38.7433 138.2 38.5684 137.413C38.5684 137.151 38.6558 136.976 38.9182 136.976C39.0931 136.976 39.3555 137.063 39.3555 137.326C39.5304 138.112 39.6178 138.899 39.7927 139.773C39.8802 139.948 39.7053 140.21 39.4429 140.21ZM38.5684 135.403C38.3934 135.403 38.2185 135.228 38.1311 135.053C37.9562 134.266 37.8687 133.392 37.6938 132.605C37.6938 132.343 37.7812 132.168 38.0436 132.168C38.2185 132.168 38.4809 132.256 38.4809 132.518C38.5684 133.305 38.7433 134.179 38.9182 134.966C39.0056 135.14 38.9182 135.315 38.5684 135.403ZM37.7812 130.507C37.6063 130.507 37.4314 130.333 37.344 130.158C37.2565 129.371 37.0816 128.497 36.9941 127.71C36.9941 127.448 37.0816 127.273 37.344 127.273C37.5189 127.273 37.7812 127.361 37.7812 127.623C37.8687 128.41 38.0436 129.284 38.1311 130.07C38.2185 130.245 38.1311 130.507 37.7812 130.507C37.8687 130.507 37.8687 130.507 37.7812 130.507ZM37.1691 125.612C36.9941 125.612 36.8192 125.438 36.7318 125.263C36.6443 124.476 36.5569 123.602 36.3819 122.815C36.3819 122.553 36.5569 122.378 36.7318 122.378C36.9941 122.378 37.1691 122.553 37.1691 122.728C37.2565 123.514 37.344 124.389 37.5189 125.175C37.6063 125.35 37.4314 125.612 37.1691 125.612ZM36.5569 120.717C36.3819 120.717 36.207 120.542 36.1196 120.368C36.0321 119.581 35.9447 118.707 35.8572 117.92C35.8572 117.658 36.0321 117.483 36.207 117.483C36.4694 117.483 36.6443 117.658 36.6443 117.833C36.7318 118.619 36.8192 119.494 36.9067 120.28C36.9941 120.455 36.8192 120.717 36.5569 120.717ZM36.0321 115.822C35.8572 115.822 35.6823 115.647 35.5948 115.473C35.5074 114.686 35.4199 113.812 35.3325 113.025C35.3325 112.763 35.5074 112.588 35.6823 112.588C35.8572 112.588 36.1196 112.763 36.1196 112.938C36.207 113.724 36.2945 114.598 36.3819 115.385C36.4694 115.56 36.2945 115.822 36.0321 115.822ZM35.5948 110.927C35.4199 110.927 35.245 110.752 35.1576 110.577C35.0701 109.791 34.9826 108.917 34.9826 108.13C34.9826 107.868 35.1576 107.693 35.3325 107.693C35.5948 107.693 35.7697 107.868 35.7697 108.042C35.8572 108.829 35.8572 109.703 35.9447 110.49C36.0321 110.665 35.8572 110.84 35.5948 110.927ZM35.1576 105.945C34.9826 105.945 34.7203 105.77 34.7203 105.595C34.6328 104.808 34.6328 103.934 34.5454 103.147C34.5454 102.885 34.7203 102.71 34.8952 102.71C35.0701 102.71 35.3325 102.885 35.3325 103.06C35.4199 103.847 35.4199 104.721 35.5074 105.507C35.5948 105.77 35.4199 105.945 35.1576 105.945C35.245 105.945 35.245 105.945 35.1576 105.945ZM34.8952 101.049C34.7203 101.049 34.4579 100.875 34.4579 100.7C34.3704 99.9131 34.3704 99.039 34.3704 98.2522C34.3704 97.99 34.5454 97.8152 34.7203 97.8152C34.8952 97.8152 35.1576 97.99 35.1576 98.1648C35.1576 98.9515 35.245 99.8257 35.245 100.612C35.3325 100.875 35.1576 101.049 34.8952 101.049ZM34.6328 96.1543C34.3704 96.1543 34.1955 95.9795 34.1955 95.7173C34.1955 94.8432 34.1081 94.0564 34.1081 93.2697C34.1081 93.0075 34.283 92.8327 34.5454 92.8327C34.8077 92.8327 34.9826 93.0075 34.9826 93.2697C34.9826 94.0564 35.0701 94.9306 35.0701 95.7173C35.0701 95.8921 34.8952 96.1543 34.6328 96.1543ZM34.4579 91.1718C34.1955 91.1718 34.0206 90.997 34.0206 90.7348C34.0206 89.8606 33.9332 89.0739 33.9332 88.2872C33.9332 88.025 34.1081 87.8501 34.3704 87.8501C34.6328 87.8501 34.8077 88.025 34.8077 88.2872C34.8077 89.0739 34.8077 89.948 34.8952 90.7348C34.8952 90.997 34.7203 91.1718 34.4579 91.1718ZM34.3704 86.2767C34.1081 86.2767 33.9332 86.1019 33.9332 85.8397C33.9332 84.9655 33.9332 84.1788 33.9332 83.3921C33.9332 83.1299 34.1081 82.955 34.3704 82.955C34.6328 82.955 34.8077 83.1299 34.8077 83.3921C34.8077 84.1788 34.8077 85.0529 34.8077 85.8397C34.8077 86.1019 34.6328 86.2767 34.3704 86.2767ZM34.283 81.2942C34.0206 81.2942 33.8457 81.1194 33.8457 80.8571C33.8457 79.983 33.8457 79.1963 33.8457 78.4096C33.8457 78.1473 34.0206 77.9725 34.283 77.9725C34.5454 77.9725 34.7203 78.1473 34.7203 78.4096C34.7203 79.1963 34.7203 80.0704 34.7203 80.8571C34.7203 81.1194 34.5454 81.2942 34.283 81.2942ZM34.283 76.3991C34.0206 76.3991 33.8457 76.2243 33.8457 75.962C33.8457 75.0879 33.8457 74.3012 33.8457 73.5145C33.8457 73.2522 34.0206 73.0774 34.283 73.0774C34.5454 73.0774 34.7203 73.2522 34.7203 73.5145C34.7203 74.3012 34.7203 75.1753 34.7203 75.962C34.7203 76.2243 34.5454 76.3991 34.283 76.3991ZM34.3704 71.4166C34.1081 71.4166 33.9332 71.2418 33.9332 70.9795C33.9332 70.1054 33.9332 69.3187 33.9332 68.532C33.9332 68.2697 34.1081 68.0949 34.3704 68.0949C34.6328 68.0949 34.8077 68.2697 34.8077 68.532C34.8077 69.3187 34.8077 70.1928 34.8077 70.9795C34.7203 71.2418 34.5454 71.4166 34.3704 71.4166ZM34.3704 66.5215C34.1081 66.5215 33.9332 66.3466 33.9332 66.0844V63.6369C33.9332 63.3746 34.1081 63.1998 34.3704 63.1998C34.6328 63.1998 34.8077 63.3746 34.8077 63.6369V66.0844C34.8077 66.3466 34.6328 66.5215 34.3704 66.5215ZM34.4579 61.6264C34.1955 61.6264 34.0206 61.4515 34.0206 61.1893C34.0206 60.3152 34.0206 59.5285 34.0206 58.7418C34.0206 58.4795 34.1955 58.3047 34.4579 58.3047C34.7203 58.3047 34.8952 58.4795 34.8952 58.7418C34.8952 59.5285 34.8952 60.3152 34.8952 61.1893C34.8952 61.4515 34.7203 61.6264 34.4579 61.6264Z" fill="#FFA500"/>
<path d="M90.5176 237.064C88.2437 236.102 85.0953 235.316 82.6465 235.228L86.3197 233.305L87.8939 229.459C88.2437 231.819 89.3806 234.879 90.5176 237.064Z" fill="#FFA500"/>
<path d="M223.452 232.431L222.927 231.82C275.138 182.082 273.914 97.4664 273.477 65.5608V63.6377H274.264V65.5608C274.526 81.5573 274.876 111.278 268.667 142.571C261.145 180.771 245.928 211.015 223.452 232.431Z" fill="#FFA500"/>
<path d="M273.739 58.7422C274.613 61.1023 276.1 63.9869 277.762 65.7352L273.826 64.3366L269.891 65.8226C271.465 63.9869 272.952 61.1023 273.739 58.7422Z" fill="#FFA500"/>
<path d="M267.617 229.72H267.005C266.743 229.72 266.568 229.895 266.568 230.158V230.769C266.568 231.032 266.393 231.207 266.131 231.207H266.043C265.781 231.207 265.606 231.032 265.606 230.769V230.158C265.606 229.895 265.431 229.72 265.169 229.72H264.556C264.294 229.72 264.119 229.546 264.119 229.283C264.119 229.021 264.294 228.846 264.556 228.846H265.169C265.431 228.846 265.606 228.672 265.606 228.409V227.797C265.606 227.535 265.781 227.36 266.043 227.36H266.131C266.393 227.36 266.568 227.535 266.568 227.797V228.409C266.568 228.672 266.743 228.846 267.005 228.846H267.617C267.88 228.846 268.055 229.021 268.055 229.283C268.055 229.546 267.88 229.72 267.617 229.72Z" fill="#FFA500"/>
</g>
</g>
<defs>
<clipPath id="clip0_3433_37422">
<rect width="327" height="250" fill="white"/>
</clipPath>
</defs>
</svg>
