<svg width="18" height="18" viewBox="0 0 18 18" fill="none" xmlns="http://www.w3.org/2000/svg">
<g clip-path="url(#clip0_325_425)">
<path d="M17.1575 8.99891C17.1575 8.99891 15.7484 8.52641 15.0762 7.37047C15.079 6.03453 16.0634 4.92078 16.0634 4.92078C16.0634 4.92078 14.6065 5.21609 13.4478 4.54953C12.784 3.39078 13.0765 1.93391 13.0765 1.93391C13.0765 1.93391 11.9628 2.91828 10.6269 2.92109C9.47092 2.24891 8.99842 0.839844 8.99842 0.839844C8.99842 0.839844 8.52592 2.24891 7.36998 2.92109C6.03404 2.91828 4.92029 1.93391 4.92029 1.93391C4.92029 1.93391 5.21561 3.39078 4.54904 4.54953C3.39029 5.21328 1.93342 4.92078 1.93342 4.92078C1.93342 4.92078 2.91779 6.03453 2.92061 7.37047C2.24842 8.52641 0.839355 8.99891 0.839355 8.99891C0.839355 8.99891 2.24842 9.47141 2.92061 10.6273C2.91779 11.9633 1.93342 13.077 1.93342 13.077C1.93342 13.077 3.39029 12.7817 4.54904 13.4483C5.21279 14.607 4.92029 16.0639 4.92029 16.0639C4.92029 16.0639 6.03404 15.0795 7.36998 15.0767C8.52592 15.7489 8.99842 17.158 8.99842 17.158C8.99842 17.158 9.47092 15.7489 10.6269 15.0767C11.9628 15.0795 13.0765 16.0639 13.0765 16.0639C13.0765 16.0639 12.7812 14.607 13.4478 13.4483C14.6065 12.7845 16.0634 13.077 16.0634 13.077C16.0634 13.077 15.079 11.9633 15.0762 10.6273C15.7484 9.47141 17.1575 8.99891 17.1575 8.99891ZM9.00123 14.0614C6.21123 14.0614 3.93873 11.7917 3.93873 8.99891C3.93873 6.20609 6.21123 3.93641 9.00123 3.93641C11.7912 3.93641 14.0637 6.20609 14.0637 8.99891C14.0637 11.7917 11.7912 14.0614 9.00123 14.0614Z" fill="#FFCF00"/>
<path d="M9 13.5C11.4853 13.5 13.5 11.4853 13.5 9C13.5 6.51472 11.4853 4.5 9 4.5C6.51472 4.5 4.5 6.51472 4.5 9C4.5 11.4853 6.51472 13.5 9 13.5Z" fill="#FFCF00"/>
<path d="M12.4589 6.12C11.8429 5.80219 11.1454 5.625 10.4058 5.625C7.91951 5.625 5.90576 7.63875 5.90576 10.125C5.90576 11.2219 6.2967 12.2259 6.94639 13.005C5.49232 12.2597 4.49951 10.7466 4.49951 9C4.49951 6.51375 6.51326 4.5 8.99951 4.5C10.3889 4.5 11.632 5.13 12.4589 6.12Z" fill="#FFC000"/>
<path d="M4.56262 11.43C4.16605 10.7072 3.93824 9.88031 3.93824 9C3.93824 6.20719 6.21074 3.9375 9.00074 3.9375C9.77137 3.9375 10.4998 4.11469 11.1523 4.42406C11.9229 3.87 12.5754 3.46781 13.0367 3.20625C12.9636 2.50031 13.0761 1.93781 13.0761 1.93781C13.0761 1.93781 11.9623 2.92219 10.6264 2.925C9.47043 2.25281 8.99793 0.84375 8.99793 0.84375C8.99793 0.84375 8.52543 2.25281 7.36949 2.925C6.03356 2.92219 4.9198 1.93781 4.9198 1.93781C4.9198 1.93781 5.21512 3.39469 4.54855 4.55344C3.3898 5.21719 1.93293 4.92469 1.93293 4.92469C1.93293 4.92469 2.9173 6.03844 2.92012 7.37438C2.24793 8.53031 0.838867 9.00281 0.838867 9.00281C0.838867 9.00281 2.24793 9.47531 2.92012 10.6313C2.9173 11.9672 1.93293 13.0809 1.93293 13.0809C1.93293 13.0809 2.71199 12.9234 3.58387 13.1006C3.89605 12.5184 4.22231 11.9616 4.55699 11.4356L4.56262 11.43Z" fill="#FFC000"/>
</g>
<defs>
<clipPath id="clip0_325_425">
<rect width="18" height="18" fill="white"/>
</clipPath>
</defs>
</svg>
