<svg width="18" height="18" viewBox="0 0 18 18" fill="none" xmlns="http://www.w3.org/2000/svg">
<g clip-path="url(#clip0_677_2765)">
<path d="M8.87064 8.67068C10.0618 8.67068 11.0933 8.24345 11.9361 7.40053C12.7789 6.55774 13.2061 5.52654 13.2061 4.33521C13.2061 3.14429 12.7789 2.11295 11.936 1.26988C11.093 0.427231 10.0617 0 8.87064 0C7.67931 0 6.6481 0.427231 5.80531 1.27002C4.96252 2.11281 4.53516 3.14415 4.53516 4.33521C4.53516 5.52654 4.96252 6.55788 5.80545 7.40067C6.64838 8.24332 7.67972 8.67068 8.87064 8.67068Z" fill="white"/>
<path d="M16.4577 13.8417C16.4333 13.491 16.3842 13.1084 16.3118 12.7044C16.2388 12.2973 16.1447 11.9125 16.0321 11.5608C15.9158 11.1973 15.7576 10.8383 15.562 10.4943C15.359 10.1373 15.1206 9.82635 14.8531 9.57051C14.5734 9.30286 14.2309 9.08766 13.8348 8.93069C13.4401 8.77455 13.0027 8.69545 12.5349 8.69545C12.3511 8.69545 12.1734 8.77084 11.8302 8.99428C11.619 9.13202 11.3719 9.29132 11.0962 9.46751C10.8604 9.61775 10.541 9.75851 10.1464 9.88596C9.76149 10.0105 9.37065 10.0737 8.98489 10.0737C8.59914 10.0737 8.20844 10.0105 7.82309 9.88596C7.42896 9.75865 7.10953 9.61789 6.87401 9.46765C6.60086 9.29311 6.35367 9.1338 6.1393 8.99414C5.79652 8.77071 5.61868 8.69531 5.43494 8.69531C4.96692 8.69531 4.52966 8.77455 4.13512 8.93083C3.73933 9.08752 3.3967 9.30272 3.11668 9.57065C2.8493 9.82663 2.61076 10.1374 2.40807 10.4943C2.21265 10.8383 2.05444 11.1972 1.93799 11.561C1.82552 11.9127 1.73145 12.2973 1.65839 12.7044C1.58601 13.1078 1.53685 13.4906 1.51254 13.8421C1.48865 14.1866 1.47656 14.544 1.47656 14.9051C1.47656 15.8447 1.77525 16.6053 2.36426 17.1663C2.94598 17.7199 3.71571 18.0007 4.65175 18.0007H13.3189C14.2549 18.0007 15.0244 17.72 15.6062 17.1663C16.1954 16.6057 16.494 15.8449 16.494 14.9049C16.4939 14.5422 16.4817 14.1845 16.4577 13.8417Z" fill="white"/>
</g>
<defs>
<clipPath id="clip0_677_2765">
<rect width="18" height="18.0001" fill="white"/>
</clipPath>
</defs>
</svg>
